<svg width="66" height="57" viewBox="0 0 106 97" fill="none" xmlns="http://www.w3.org/2000/svg">
<path d="M34.3126 75.9207C35.9766 76.3256 37.6855 75.4192 38.1281 73.8957L41.4332 62.5188L52.3071 61.5597L56.4628 74.0645C56.9641 75.5731 58.7067 76.4232 60.354 75.9647C62.002 75.5061 62.9316 73.9117 62.4305 72.4039L58.6412 61.0011L59.4146 60.9328C61.1291 60.7815 62.3852 59.3871 62.2199 57.8181C62.0548 56.2492 60.5305 55.1002 58.8162 55.2511L56.7899 55.4297L49.4366 33.3023C48.5291 30.5712 44.2445 30.6255 43.4386 33.3993L36.5191 57.2177L30.9229 57.7112C29.2084 57.8625 27.9524 59.2569 28.1177 60.8259C28.2832 62.3974 29.8108 63.5446 31.5213 63.3929L34.8096 63.1029L32.1002 72.4292C31.6573 73.9524 32.648 75.5157 34.3126 75.9207ZM46.6538 44.5481L50.4556 55.9886L43.1427 56.6336L46.6538 44.5481Z" fill="black"/>
<path d="M69.4114 40.1718C71.1338 40.1718 72.5301 38.894 72.5301 37.3178V31.1875L75.9855 31.3705C77.7048 31.4615 79.1798 30.26 79.2794 28.6863C79.379 27.1126 78.0655 25.7632 76.3461 25.6721L72.5301 25.47V21.9577C72.5301 20.3816 71.1338 19.1038 69.4114 19.1038C67.689 19.1038 66.2926 20.3816 66.2926 21.9577V25.1397L62.8372 24.9567C61.1181 24.8654 59.6429 26.0675 59.5433 27.641C59.4437 29.2144 60.7572 30.564 62.4766 30.6551L66.2926 30.8572V37.318C66.2926 38.8942 67.689 40.1718 69.4114 40.1718Z" fill="black"/>
<path d="M87.0486 13.4428C85.8687 12.2949 83.8949 12.2397 82.6401 13.3195C81.3855 14.3996 81.3252 16.2056 82.5054 17.3539C96.7655 31.2257 99.5302 56.5679 88.6683 73.8459C79.2853 88.7714 61.9044 94.3964 39.7284 89.6843C17.0374 84.863 8.19842 63.1246 11.4018 45.1187C15.0323 24.7135 35.1193 2.26166 79.7789 6.14098C81.4951 6.28862 83.0158 5.13847 83.1784 3.56936C83.3412 2.00024 82.0831 0.6075 80.3684 0.458522C36.167 -3.38122 10.0154 17.3904 5.24535 44.2014C1.21693 66.8452 13.6544 90.0039 38.3175 95.2442C61.5326 100.177 82.6037 94.939 94.0748 76.692C106.155 57.477 103.279 29.2312 87.0486 13.4428Z" fill="black"/>
</svg>
