<svg width="66" height="57" viewBox="0 0 92 117" fill="none" xmlns="http://www.w3.org/2000/svg">
<path d="M91.736 96.9045L80.6773 67.8099C80.3521 66.9541 80.491 65.9784 81.0398 65.2631C86.4503 58.2127 89.3525 49.7526 89.4331 40.7978C89.4983 33.5821 87.6479 26.4691 84.0823 20.2275C83.6216 19.4213 82.6053 19.1477 81.8129 19.6157C81.0201 20.084 80.7508 21.1171 81.2113 21.9233C84.4778 27.6412 86.1727 34.1573 86.1132 40.7669C86.0392 48.9734 83.3797 56.726 78.4222 63.1864C77.1592 64.8321 76.8367 67.0702 77.5805 69.027L88.6389 98.1214C88.7594 98.4386 88.6036 98.7964 88.2919 98.9189L50.9788 113.583C50.6671 113.705 50.3151 113.547 50.1944 113.23L43.2313 94.9091C42.7201 93.5645 41.3436 92.8136 39.9597 93.124L22.8014 96.9674C21.1892 97.3282 19.5194 96.6129 18.6479 95.1863C18.1101 94.3058 17.9332 93.2634 18.1499 92.2508L18.9951 88.2966C19.2592 87.0605 19.3048 85.7987 19.1302 84.5459L18.8612 82.6145C18.7012 81.4646 17.72 80.5986 16.5781 80.5986C16.5768 80.5983 16.5752 80.5986 16.5734 80.5986C15.5282 80.5986 14.627 79.913 14.382 78.9306C14.1919 78.1676 14.3858 77.5774 14.5823 77.2168C15.1711 76.1343 14.8735 74.7835 13.8894 74.0744L12.3563 72.9705C12.1093 72.7927 11.9972 72.4849 12.0704 72.1864L12.9476 68.6189C13.2604 67.3474 12.6275 66.0497 11.4425 65.533L3.75961 62.1848C3.46656 62.057 3.37172 61.8105 3.34115 61.6749C3.31059 61.5394 3.29081 61.2753 3.50026 61.0308L12.8154 50.1555C13.6328 49.2012 13.9813 47.9359 13.7716 46.6846C13.4267 44.6272 13.2518 42.5199 13.2518 40.4207C13.2518 30.4771 17.0734 21.1418 24.0125 14.1348C30.8895 7.19042 39.9954 3.37604 49.6814 3.37604C49.7679 3.37604 49.8558 3.37627 49.9423 3.37695C60.2011 3.44939 70.0257 8.00051 76.8971 15.863C77.5061 16.5598 78.5552 16.6229 79.2408 16.0036C79.9261 15.3843 79.9881 14.3174 79.3791 13.6204C71.8838 5.04397 61.1629 0.0799276 49.9654 0.000861147C39.2949 -0.0688361 29.2438 4.09426 21.673 11.739C14.1016 19.3847 9.93165 29.5706 9.93165 40.4205C9.93165 42.7091 10.1224 45.0072 10.4984 47.2515C10.5402 47.5004 10.4719 47.7506 10.3114 47.938L0.996298 58.8132C0.138271 59.8151 -0.186916 61.132 0.104337 62.427C0.395365 63.722 1.25092 64.7647 2.45144 65.2878L9.58017 68.3945L8.84911 71.3677C8.44145 73.0267 9.06463 74.7371 10.4371 75.7255L11.3248 76.3649C10.9373 77.4375 10.8778 78.6162 11.1632 79.7604C11.7097 81.9516 13.5071 83.5583 15.6868 83.905L15.8423 85.0197C15.9614 85.8748 15.9304 86.7358 15.75 87.5795L14.905 91.5337C14.5043 93.4082 14.8315 95.3378 15.827 96.9676C17.44 99.6083 20.5296 100.934 23.5151 100.264L40.2795 96.5092L47.0972 114.447C47.6983 116.029 49.1881 117 50.7641 117C51.2338 117 51.7114 116.914 52.1752 116.732L89.4884 102.068C91.5083 101.274 92.5162 98.958 91.736 96.9045Z" fill="black"/>
<path d="M81.8979 34.2738C82.1266 33.6372 82.0795 32.9286 81.7686 32.3296C81.4578 31.7307 80.9095 31.291 80.2636 31.1233C78.6473 30.7038 74.6114 29.8338 69.9396 30.121C70.5723 25.3224 69.9635 21.0595 69.6356 19.2949C69.5118 18.629 69.1147 18.0447 68.5465 17.6916C67.9782 17.3386 67.2856 17.2458 66.6462 17.438C64.9942 17.9341 61.0025 19.3177 57.1002 22.0574C55.1851 17.8763 52.6434 14.7739 51.5509 13.5459C51.1039 13.0434 50.4657 12.755 49.7996 12.7548C49.7996 12.7548 49.7996 12.7548 49.7994 12.7548C49.1335 12.7548 48.495 13.0429 48.0478 13.5459C46.9554 14.7742 44.4139 17.8765 42.4987 22.0574C38.6032 19.3218 34.6214 17.9391 32.9523 17.438C32.313 17.2462 31.6206 17.3386 31.0522 17.6916C30.4839 18.0447 30.087 18.629 29.9632 19.2951C29.6353 21.0597 29.0267 25.3229 29.6591 30.121C24.9874 29.8338 20.9512 30.7037 19.3351 31.1235C18.6892 31.2913 18.1404 31.7309 17.8299 32.3301C17.5193 32.929 17.4723 33.6379 17.7011 34.2743C18.5162 36.5432 20.9175 42.2993 25.5968 46.7332C25.9169 47.0364 26.3229 47.1864 26.7281 47.1864C27.1727 47.1864 27.6161 47.0058 27.943 46.6491C28.5682 45.967 28.5312 44.8989 27.8603 44.2634C24.2651 40.8569 22.1389 36.4139 21.2148 34.1438C24.466 33.4402 31.7024 32.4469 37.7378 35.6831C38.8124 36.2594 39.8581 36.9797 40.8508 37.8232C41.1876 39.1223 41.6369 40.4317 42.2016 41.7452C42.5686 42.5994 43.5471 42.989 44.3876 42.6158C45.2276 42.2424 45.611 41.2472 45.2438 40.393C44.0406 37.594 43.4305 34.8458 43.4305 32.225C43.4305 25.2852 47.6714 19.2393 49.7994 16.6443C51.9276 19.2393 56.1683 25.285 56.1683 32.225C56.1683 36.8579 54.23 41.0832 52.593 43.8256C49.0706 44.8372 46.3738 46.7741 45.1926 49.1911C41.9832 49.557 37.5789 49.5709 33.4894 47.9297C32.6372 47.5876 31.6725 48.0129 31.3358 48.8801C30.9992 49.7471 31.4176 50.7277 32.2705 51.07C35.481 52.3586 38.8154 52.7672 41.754 52.7672C42.7482 52.7672 43.6947 52.7194 44.5782 52.644C44.6224 53.0359 44.7058 53.4241 44.8251 53.8064C39.8959 54.1844 36.186 56.9131 36.186 60.3303C36.186 60.9265 36.2979 61.5065 36.513 62.0616C35.912 62.507 35.5194 63.2261 35.5194 64.0385V69.3558C35.5194 70.7054 36.5993 71.8034 37.9265 71.8034H57.5295C54.95 72.5966 53.1919 74.3715 53.1919 76.4846C53.1919 79.3593 56.444 81.6111 60.5955 81.6111C64.747 81.6111 67.9993 79.3593 67.9993 76.4846C67.9993 74.3717 66.2412 72.5966 63.6617 71.8034H72.4059C73.7331 71.8034 74.813 70.7054 74.813 69.3558V64.0385C74.813 62.6889 73.7331 61.5908 72.4059 61.5908H55.6458C55.7229 61.3107 55.7732 61.025 55.7979 60.7355C56.6054 60.8278 57.4277 60.876 58.2587 60.876C65.954 60.876 71.982 56.9625 71.982 51.9664C71.982 50.9155 71.7123 49.9135 71.2195 48.9848C77.8329 44.451 81.0423 36.6548 81.8979 34.2738ZM39.2862 32.6964C37.2712 31.616 35.1572 30.9416 33.0815 30.5452C32.4386 26.6892 32.7422 23.0949 33.046 21.0097C34.9756 21.6751 38.1973 23.0115 41.242 25.2932C40.5568 27.4415 40.1103 29.7767 40.1103 32.2245C40.1103 32.5422 40.1195 32.8612 40.1345 33.1809C39.8536 33.0122 39.5711 32.8493 39.2862 32.6964ZM64.6793 76.4839C64.6793 77.1009 63.1289 78.2343 60.5957 78.2343C58.0625 78.2343 56.5123 77.1009 56.5123 76.4839C56.5123 75.8669 58.0628 74.7335 60.5957 74.7335C63.1289 74.7335 64.6793 75.8669 64.6793 76.4839ZM66.5525 21.0099C66.8561 23.0951 67.1599 26.6894 66.517 30.5454C64.4413 30.9419 62.3273 31.616 60.3123 32.6964C60.0274 32.8493 59.7451 33.0122 59.4644 33.1811C59.479 32.8616 59.4885 32.5426 59.4885 32.2245C59.4885 29.7762 59.0417 27.4408 58.3565 25.2923C61.4034 23.0092 64.6292 21.6735 66.5525 21.0099ZM38.8396 64.9665H44.1211V68.4269H38.8396V64.9665ZM62.4628 64.9665V68.4269H47.4413V64.9665H62.4628ZM71.493 68.4269H65.783V64.9665H71.493V68.4269ZM40.1258 61.5904C39.8093 61.2638 39.5062 60.8244 39.5062 60.3299C39.5062 58.8219 42.2839 57.1357 46.0014 57.1357C49.7189 57.1357 52.4966 58.8221 52.4966 60.3299C52.4966 60.831 52.182 61.2764 51.8784 61.5904H40.1258ZM58.2587 57.4995C57.0045 57.4995 55.7784 57.3736 54.6113 57.1293C53.3618 55.5996 51.2296 54.4593 48.6418 53.9927C48.1202 53.3323 47.8557 52.6504 47.8557 51.9658C47.8557 49.3483 52.128 46.432 58.2587 46.432C64.3894 46.432 68.6618 49.3483 68.6618 51.9658C68.6618 54.5832 64.3894 57.4995 58.2587 57.4995ZM69.0461 46.4003C66.5527 44.3512 62.6828 43.0562 58.259 43.0562C57.7565 43.0562 57.2616 43.0738 56.7746 43.1062C57.6432 41.3343 58.3023 39.5686 58.7547 37.8163C59.7456 36.9751 60.7888 36.2576 61.861 35.6826C67.8979 32.4455 75.1348 33.4398 78.3853 34.1436C77.2169 37.0277 74.2977 42.9734 69.0461 46.4003Z" fill="black"/>
</svg>
