<svg width="40" height="37" viewBox="0 0 91 89" fill="none" xmlns="http://www.w3.org/2000/svg">
<path d="M82.7683 0H8.23169C3.6855 0 0 3.6045 0 8.05077V80.949C0 85.3955 3.6855 89 8.23169 89H82.7681C87.3145 89 91 85.3955 91 80.949V8.05077C91 3.6045 87.3145 0 82.7683 0ZM28.1593 76.8485C28.1593 78.1425 27.0868 79.1914 25.7637 79.1914H15.5665C14.2434 79.1914 13.1709 78.1425 13.1709 76.8485V35.0415C13.1709 33.7475 14.2434 32.6986 15.5665 32.6986H25.7637C27.0868 32.6986 28.1593 33.7475 28.1593 35.0415V76.8485ZM20.6651 28.7577C15.3149 28.7577 10.9776 24.5158 10.9776 19.2832C10.9776 14.0506 15.3149 9.80864 20.6651 9.80864C26.0153 9.80864 30.3526 14.0506 30.3526 19.2832C30.3526 24.5158 26.0155 28.7577 20.6651 28.7577ZM81.4498 77.0372C81.4498 78.2268 80.4635 79.1914 79.2472 79.1914H68.3048C67.0884 79.1914 66.1022 78.2268 66.1022 77.0372V57.4274C66.1022 54.502 66.9796 44.6083 58.2855 44.6083C51.5417 44.6083 50.1739 51.3803 49.8992 54.4193V77.0372C49.8992 78.2268 48.9132 79.1914 47.6966 79.1914H37.1135C35.8971 79.1914 34.9109 78.2268 34.9109 77.0372V34.8528C34.9109 33.6632 35.8971 32.6986 37.1135 32.6986H47.6966C48.913 32.6986 49.8992 33.6632 49.8992 34.8528V38.5002C52.3998 34.83 56.116 31.9971 64.0285 31.9971C81.5501 31.9971 81.4498 48.0069 81.4498 56.8034V77.0372Z" fill="#0077B7"/>
</svg>
