<svg width="66" height="57" viewBox="0 0 123 131" fill="none" xmlns="http://www.w3.org/2000/svg">
<path d="M14.4063 78.3217C14.9437 78.7017 15.5107 79.0361 16.1016 79.3217C16.8088 79.69 17.9913 80.3067 18.0746 80.7401C18.1786 81.3091 18.112 81.8969 17.8835 82.4268C17.6402 82.9601 17.3837 83.4184 17.1649 83.8151C16.5655 84.8918 15.5659 86.6968 17.0751 87.9568C17.4278 88.2902 18.0371 88.7718 18.594 89.2068C18.1847 89.9361 17.9992 90.7739 18.0615 91.6119C18.1473 92.2677 18.4941 92.8586 19.0203 93.2452C19.3878 93.5119 19.7814 93.7452 20.1636 93.9702C21.1239 94.5286 21.4996 94.7886 21.6335 95.3036C21.7214 95.9817 21.66 96.6712 21.4539 97.322C21.3575 97.7553 21.2644 98.187 21.204 98.6303C21.0421 100.15 21.2311 101.688 21.756 103.12C22.489 105.774 24.841 107.624 27.5427 107.67C27.9911 107.669 28.4382 107.621 28.8771 107.527C33.543 106.399 38.1408 104.995 42.6472 103.322C46.3253 105.525 48.6511 112.226 49.257 114.741C49.4386 115.483 50.0927 116.004 50.8429 116.004L91.838 115.887C92.3575 115.886 92.8456 115.633 93.1526 115.205C93.4595 114.778 93.5487 114.226 93.3929 113.721C92.9889 112.591 92.432 111.525 91.7384 110.554C91.3461 109.979 90.9925 109.378 90.68 108.754C89.9415 107.225 89.3248 105.638 88.8361 104.009C87.9044 100.788 87.2578 97.4876 86.9039 94.1486C86.3306 89.1622 87.0714 84.1101 89.05 79.5134C90.2574 76.9641 91.7457 74.5635 93.486 72.3583C94.4659 71.0083 95.4835 69.6099 96.3965 68.1415C97.9663 65.6531 99.1044 62.9074 99.761 60.0248C99.9489 59.1349 99.4025 58.2558 98.5335 58.0501C97.6646 57.8444 96.7947 58.3881 96.5794 59.2714C96.0051 61.7873 95.0107 64.1834 93.6395 66.3549C92.7918 67.7232 91.8119 69.0699 90.8629 70.3732C88.973 72.7797 87.3602 75.3997 86.0562 78.1817C83.8444 83.3225 83.0178 88.9727 83.6618 94.5486C84.0385 98.0898 84.7278 101.589 85.7214 105.004C86.258 106.797 86.9358 108.542 87.7483 110.224C88.1207 110.975 88.5436 111.699 89.0141 112.391L89.1235 112.557L52.0777 112.671C50.9921 108.717 49.0237 105.074 46.3269 102.027L47.7969 101.505C48.8944 101.114 49.7225 100.819 50.1504 100.672C57.1441 98.397 60.6425 95.1469 60.5462 91.0052C60.5417 90.5628 60.3618 90.1411 60.0477 89.8363C59.7335 89.5314 59.3118 89.3693 58.8786 89.3868C57.9771 89.4087 57.2635 90.1719 57.2845 91.0919C57.3237 92.7969 55.9469 95.2936 49.1574 97.5003C48.7131 97.6453 47.8508 97.9503 46.7222 98.3553C45.5087 98.787 43.9701 99.337 42.2715 99.9253H42.2601C37.6669 101.644 32.9803 103.091 28.2238 104.259C26.7025 104.551 25.2237 103.576 24.8592 102.04C24.508 101.1 24.37 100.09 24.4558 99.087C24.5032 98.7537 24.5799 98.4036 24.6551 98.0636C25.0027 96.9003 25.0588 95.6665 24.8184 94.4753C24.3441 92.949 23.244 91.7079 21.8034 91.0735L21.4522 90.8685C21.6283 90.5036 21.8395 90.1575 22.0827 89.8352C22.3563 89.4805 22.4773 89.0277 22.4178 88.5803C22.3584 88.133 22.1237 87.7294 21.7674 87.4618C21.3771 87.1685 20.4608 86.4618 19.7748 85.9051C19.8532 85.7601 19.9382 85.6001 20.0215 85.4568C20.2779 84.9968 20.5719 84.4568 20.8561 83.8451C21.3737 82.6776 21.5254 81.3755 21.2905 80.1167C20.9002 78.0834 18.9909 77.0867 17.5977 76.36C17.1283 76.1321 16.6782 75.8651 16.2519 75.5617C15.9019 75.3225 15.5739 75.0514 15.2719 74.7516C15.2719 74.4983 15.5381 73.8866 16.7811 72.3416C19.7037 68.4989 22.2091 64.344 24.2533 59.9498C24.637 59.2609 24.8532 58.4882 24.8837 57.6964C24.7127 56.0194 23.8389 54.5 22.4877 53.5297C21.8262 52.9097 21.2007 52.3263 21.1305 51.8346C21.1454 51.4263 21.2352 51.0243 21.3951 50.6496C21.6613 49.9363 21.97 49.2363 22.277 48.5346C22.9657 47.0869 23.5128 45.5735 23.9103 44.0162C24.2846 42.1483 24.7755 40.3067 25.3802 38.5028C26.6676 34.8764 28.661 31.5535 31.2404 28.7343C34.3632 25.3593 39.2794 22.9726 45.8778 21.6359C50.925 20.5051 56.0464 19.752 61.2011 19.3825C62.9355 19.2913 64.6741 19.3292 66.4031 19.4958C66.9854 19.5512 67.5525 19.2854 67.8907 18.7984C68.2288 18.3114 68.2867 17.6774 68.0426 17.135C67.7984 16.5927 67.2892 16.2245 66.7069 16.1691C64.8196 15.9927 62.9223 15.9542 61.0296 16.0541C55.7156 16.4304 50.4358 17.2036 45.2326 18.3675C37.8682 19.8675 32.516 22.5025 28.864 26.4426C25.9802 29.5885 23.7511 33.2983 22.3113 37.3478C21.6494 39.3184 21.1121 41.3303 20.7025 43.3712C20.3535 44.68 19.8843 45.9523 19.3012 47.1712C18.9745 47.9296 18.6381 48.6879 18.3441 49.4763C17.9724 50.3575 17.8198 51.3188 17.8999 52.2746C18.2377 53.7624 19.0851 55.0781 20.2893 55.9847C21.0896 56.733 21.6172 57.2597 21.6237 57.7197C21.5643 57.9727 21.4708 58.2162 21.3461 58.4431C19.3906 62.6458 16.9942 66.6196 14.1989 70.2949C13.0164 71.7666 11.7751 73.4816 12.0348 75.1983C12.3826 76.522 13.2371 77.6475 14.4063 78.3217Z" fill="black"/>
<path d="M31.5017 40.8183C32.4852 38.0357 34.0096 35.4847 35.9833 33.3182C38.1605 30.9665 41.9252 29.2348 47.1745 28.1698C48.0594 27.9908 48.6345 27.1136 48.4591 26.2106C48.2836 25.3076 47.4241 24.7207 46.5392 24.8998C40.612 26.1031 36.2626 28.1631 33.6102 31.0232C31.3311 33.5194 29.571 36.4608 28.436 39.67C27.8862 41.335 27.4384 43.0333 27.0951 44.7551L30.2849 45.4767C30.5979 43.9003 31.0043 42.3446 31.5017 40.8183Z" fill="black"/>
<path d="M65.6714 25.3364L64.6915 30.3231C63.7468 30.6397 62.8273 31.0297 61.941 31.4898L57.7942 28.6564C56.4984 27.7905 54.785 27.9722 53.6914 29.0914L50.9801 31.8565C49.8618 32.9769 49.6808 34.75 50.549 36.0815L53.3125 40.2932C52.8616 41.1976 52.4794 42.1359 52.1692 43.1L47.289 44.1C45.764 44.4143 44.6679 45.7825 44.6692 47.37V51.3034C44.6681 52.8883 45.7607 54.2548 47.2824 54.5718L52.1692 55.5718C52.4794 56.5358 52.8616 57.4741 53.3125 58.3785L50.5359 62.6102C49.6874 63.9325 49.8654 65.681 50.9622 66.797L53.6734 69.5637C54.7733 70.6997 56.507 70.8833 57.8121 70.002L61.9394 67.182C62.8256 67.6421 63.7451 68.0321 64.6898 68.3487L65.6698 73.3287C65.9771 74.8855 67.318 76.0049 68.8743 76.0038H72.7288C74.2819 76.0049 75.621 74.8899 75.9316 73.3371L76.9116 68.3503C77.8563 68.0338 78.7758 67.6437 79.662 67.1836L83.8089 70.017C85.1046 70.8829 86.8181 70.7012 87.9117 69.582L90.6213 66.817C91.7396 65.6965 91.9206 63.9235 91.0524 62.5919L88.2889 58.3802C88.7398 57.4758 89.122 56.5375 89.4322 55.5735L94.3124 54.5735C95.2818 54.3735 96.1094 53.7344 96.5615 52.8368L99.0228 54.5201C99.4977 54.8254 100.047 54.9878 100.609 54.9885C101.392 54.9887 102.142 54.6701 102.694 54.1035L104.867 51.8867C105.854 50.8736 106.013 49.2933 105.247 48.0967L103.14 44.88C103.446 44.2532 103.71 43.6061 103.931 42.9433L107.627 42.1916C109.01 41.9144 110.005 40.6747 110 39.2366V36.1032C110.005 34.6704 109.016 33.434 107.64 33.1515L103.928 32.3965C103.708 31.7334 103.445 31.0864 103.14 30.4598L105.28 27.2047C106.021 26.0125 105.851 24.4548 104.872 23.458L102.699 21.2413C101.707 20.2326 100.158 20.0707 98.9852 20.853L95.833 23.003C95.2188 22.6911 94.5847 22.4216 93.9352 22.1963L93.1969 18.4246C92.9254 17.014 91.7115 15.9983 90.3028 16.0029H87.2322C85.8282 15.9978 84.6166 17.0066 84.3397 18.4113L83.5998 22.1996C82.95 22.4248 82.3159 22.6949 81.702 23.008L78.5122 20.8246C77.3436 20.0694 75.818 20.2425 74.8406 21.2413L73.3707 22.7413C73.1595 22.6964 72.9445 22.6724 72.7288 22.6697H68.8743C67.3212 22.6685 65.982 23.7835 65.6714 25.3364ZM90.6409 31.8698L89.8781 31.0914C92.7091 31.4782 94.9608 33.7057 95.4273 36.5812C95.8939 39.4567 94.466 42.3061 91.9083 43.6033L89.429 43.1033C89.1187 42.1393 88.7365 41.2009 88.2857 40.2966L91.0622 36.0648C91.9138 34.7431 91.7378 32.9925 90.6409 31.8748V31.8698ZM76.9704 23.7763L80.704 26.3364C81.2276 26.6947 81.9065 26.7135 82.4484 26.3847C83.3833 25.8232 84.3888 25.3942 85.4372 25.1097C86.0363 24.9446 86.4919 24.4473 86.6132 23.8263L87.4903 19.3363H90.0447L90.9218 23.8363C91.043 24.4573 91.4987 24.9546 92.0977 25.1197C93.1461 25.4042 94.1517 25.8332 95.0866 26.3947C95.6303 26.7205 96.3093 26.6978 96.8309 26.3364L100.565 23.7797L102.378 25.6297L99.8737 29.4414C99.5226 29.9757 99.5042 30.6685 99.8264 31.2214C100.377 32.1755 100.797 33.2016 101.076 34.2715C101.238 34.8828 101.725 35.3478 102.333 35.4715L106.743 36.3665V38.9732L102.342 39.8682C101.733 39.992 101.246 40.4569 101.084 41.0683C100.805 42.1381 100.385 43.1642 99.8345 44.1183C99.5124 44.6712 99.5308 45.364 99.8819 45.8983L102.387 49.7084L100.574 51.5584L96.9338 49.0734V47.37C96.934 46.3942 96.5164 45.467 95.7906 44.8316C98.666 42.0049 99.5682 37.678 98.0695 33.9016C96.5708 30.1252 92.9724 27.6581 88.9798 27.6697C87.9923 27.6761 87.0119 27.8403 86.0742 28.1564C85.2762 28.0378 84.4632 28.2203 83.7876 28.6697L79.6636 31.4898C78.7774 31.0297 77.8579 30.6397 76.9132 30.3231L75.9332 25.343C75.9043 25.2095 75.8667 25.0781 75.8206 24.9497L76.9704 23.7763ZM67.6983 31.9648L68.8743 26.003H72.7288L73.9031 31.9698C74.0252 32.5891 74.4799 33.0847 75.0774 33.2498C76.4269 33.621 77.7232 34.1701 78.9336 34.8832C79.4729 35.2024 80.1434 35.1804 80.6616 34.8265L85.6038 31.4531L88.3412 34.2315L85.0257 39.2799C84.6788 39.8087 84.6573 40.4928 84.9701 41.0433C85.6689 42.2784 86.207 43.6013 86.5707 44.9783C86.7325 45.5881 87.2182 46.0521 87.8251 46.1767L93.6673 47.3683V51.3034L87.8202 52.5018C87.2133 52.6264 86.7276 53.0904 86.5658 53.7001C86.2021 55.0772 85.664 56.4 84.9652 57.6352C84.6524 58.1856 84.6739 58.8697 85.0208 59.3985L88.3265 64.4419L85.6038 67.2353L80.6567 63.8519C80.1385 63.498 79.468 63.476 78.9287 63.7953C77.7183 64.5083 76.422 65.0574 75.0725 65.4286C74.475 65.5937 74.0203 66.0893 73.8982 66.7086L72.7288 72.6704H68.8743L67.6999 66.7036C67.5778 66.0843 67.1231 65.5887 66.5256 65.4236C65.1762 65.0524 63.8799 64.5033 62.6695 63.7903C62.1301 63.471 61.4596 63.493 60.9415 63.8469L55.9992 67.2203L53.2618 64.4419L56.5774 59.3935C56.9242 58.8647 56.9458 58.1806 56.6329 57.6302C55.9341 56.395 55.3961 55.0722 55.0323 53.6951C54.8705 53.0854 54.3848 52.6214 53.7779 52.4968L47.9357 51.3034V47.37L53.7828 46.1717C54.3897 46.0471 54.8754 45.5831 55.0372 44.9733C55.401 43.5963 55.939 42.2734 56.6378 41.0383C56.9507 40.4878 56.9291 39.8037 56.5823 39.2749L53.2765 34.2315L55.9992 31.4381L60.9464 34.8215C61.4645 35.1754 62.135 35.1974 62.6744 34.8782C63.8848 34.1651 65.1811 33.616 66.5305 33.2448C67.1255 33.0775 67.5773 32.5823 67.6983 31.9648Z" fill="black"/>
<path d="M70.8014 61.0037C77.1156 61.0037 82.2343 55.7802 82.2343 49.3368C82.2343 42.8934 77.1156 37.67 70.8014 37.67C64.4872 37.67 59.3685 42.8934 59.3685 49.3368C59.3757 55.7772 64.4902 60.9963 70.8014 61.0037ZM70.8014 41.0034C75.3116 41.0034 78.9678 44.7344 78.9678 49.3368C78.9678 53.9393 75.3116 57.6703 70.8014 57.6703C66.2913 57.6703 62.6351 53.9393 62.6351 49.3368C62.6405 44.7367 66.2935 41.0089 70.8014 41.0034Z" fill="black"/>
<path d="M70.8015 51.0035C71.7035 51.0035 72.4347 50.2573 72.4347 49.3368C72.4347 48.4163 71.7035 47.6701 70.8015 47.6701C69.8995 47.6701 69.1682 48.4163 69.1682 49.3368C69.1682 50.2573 69.8995 51.0035 70.8015 51.0035Z" fill="black"/>
<path d="M26.7032 52.6702C27.6052 52.6702 28.3365 51.924 28.3365 51.0035C28.3365 50.083 27.6052 49.3368 26.7032 49.3368C25.8012 49.3368 25.0699 50.083 25.0699 51.0035C25.0699 51.924 25.8012 52.6702 26.7032 52.6702Z" fill="black"/>
</svg>
