<svg width="200" height="180" viewBox="0 0 200 180" fill="none" xmlns="http://www.w3.org/2000/svg">
<path d="M-0.152344 34.1924H4.24042L8.38839 41.2589L12.5364 34.1924H16.9291V51.3718H13.4421V39.1509L9.61238 45.483H7.15896L3.32923 39.1509V51.3718H-0.152344V34.1924Z" fill="black"/>
<path d="M21.7129 34.1924H25.1972V51.3718H21.7129V34.1924Z" fill="black"/>
<path d="M30.0098 34.1924H34.476L42.1572 46.4867V34.1924H45.6415V51.3718H41.1753L33.4941 39.0285V51.3718H30.0098V34.1924Z" fill="black"/>
<path d="M50.4531 34.1924H53.9374V51.3718H50.4531V34.1924Z" fill="black"/>
<path d="M59.728 46.6611C60.7589 47.9857 62.1325 48.7718 63.5306 48.7718C64.9042 48.7718 65.7392 48.0347 65.7392 46.7835C65.7392 43.7154 57.8866 44.4035 57.8866 38.6861C57.8866 35.9634 60.1197 33.7031 63.3837 33.7031C65.9595 33.7031 67.9478 34.8564 69.3976 36.5999L66.8462 38.882C65.8398 37.5818 64.711 36.7468 63.4109 36.7468C62.2087 36.7468 61.4226 37.5329 61.4226 38.5392C61.4226 41.6074 69.2752 40.8947 69.2752 46.7101C69.2262 49.9006 66.7238 51.8644 63.5822 51.8644C60.6855 51.8644 58.7244 50.8091 57.2012 48.9921L59.728 46.6611Z" fill="black"/>
<path d="M71.043 34.1924H85.1297V37.3584H79.8285V51.3718H76.3442V37.3584H71.043V34.1924Z" fill="black"/>
<path d="M88.1973 34.1926H98.2095V37.1629H91.6816V41.1395H97.2276V44.1097H91.6816V48.4045H98.2095V51.3747H88.1973V34.1926ZM88.491 29.4082H92.0732L94.8476 32.7211H91.6571L88.491 29.4082Z" fill="black"/>
<path d="M102.26 34.1924H107.512C111.29 34.1924 113.624 36.1317 113.624 39.3223C113.624 41.384 112.617 42.929 110.874 43.764L116.273 51.3718H112.101L107.537 44.4277H105.744V51.3718H102.26V34.1924ZM105.744 37.1626V41.4574H107.708C109.179 41.4574 110.039 40.6714 110.039 39.2733C110.039 37.9732 109.179 37.1626 107.708 37.1626H105.744Z" fill="black"/>
<path d="M118.434 34.1924H128.446V37.1626H121.918V41.1392H127.464V44.1094H121.918V48.4043H128.446V51.3745H118.434V34.1924Z" fill="black"/>
<path d="M-0.152344 58.9634H6.59592C12.044 58.9634 15.7242 62.9155 15.7242 67.5531C15.7242 72.1906 12.044 76.1428 6.59592 76.1428H-0.152344V58.9634ZM3.33195 62.1294V72.9767H6.64488C9.83542 72.9767 12.142 70.5967 12.142 67.5531C12.142 64.4849 9.83542 62.1294 6.64488 62.1294H3.33195Z" fill="black"/>
<path d="M19.0879 58.9634H29.1001V61.9336H22.5722V65.9102H28.1182V68.8804H22.5722V73.1753H29.1001V76.1455H19.0879V58.9634Z" fill="black"/>
<path d="M39.5332 58.9634H43.0175V72.9767H49.5454V76.1428H39.5332V58.9634Z" fill="black"/>
<path d="M50.5264 66.0326L50.1348 58.9634H53.6191L53.2519 66.0326H50.5264Z" fill="black"/>
<path d="M57.4707 58.9634H67.4829V61.9336H60.955V65.9102H66.501V68.8804H60.955V73.1753H67.4829V76.1455H57.4707V58.9634V58.9634Z" fill="black"/>
<path d="M81.571 58.9634H85.0553V69.419C85.0553 73.9341 82.406 76.6351 78.0867 76.6351C73.7918 76.6351 71.1426 73.9369 71.1426 69.419V58.9634H74.6269V69.7127C74.6269 72.0193 75.927 73.3684 78.1112 73.3684C80.2463 73.3684 81.571 72.0193 81.571 69.7127V58.9634V58.9634Z" fill="black"/>
<path d="M89.375 58.9634H94.6273C98.4053 58.9634 100.739 60.9027 100.739 64.0933C100.739 66.155 99.7327 67.6999 97.9919 68.535L103.391 76.1428H99.2186L94.6545 69.1987H92.862V76.1428H89.3777V58.9634H89.375ZM92.8593 61.9336V66.2284H94.8231C96.2946 66.2284 97.1541 65.4424 97.1541 64.0443C97.1541 62.7441 96.2946 61.9336 94.8231 61.9336H92.8593Z" fill="black"/>
<path d="M122.138 67.5529C122.138 72.4598 118.434 76.6322 113.034 76.6322C107.611 76.6322 103.906 72.4598 103.906 67.5529C103.906 62.6461 107.611 58.4736 113.034 58.4736C118.434 58.4736 122.138 62.6461 122.138 67.5529ZM118.556 67.5529C118.556 64.2645 116.25 61.7376 113.034 61.7376C109.795 61.7376 107.488 64.2645 107.488 67.5529C107.488 70.8414 109.795 73.3682 113.034 73.3682C116.25 73.3682 118.556 70.8414 118.556 67.5529Z" fill="black"/>
<path d="M125.479 58.9634H131.147C134.925 58.9634 137.234 60.9027 137.234 64.0933C137.234 67.2593 134.928 69.1987 131.147 69.1987H128.963V76.1428H125.479V58.9634ZM128.963 61.9336V66.2284H131.294C132.765 66.2284 133.649 65.4424 133.649 64.0443C133.649 62.7441 132.765 61.9336 131.294 61.9336H128.963Z" fill="black"/>
<path d="M140.104 58.9634H150.116V61.9336H143.588V65.9102H149.134V68.8804H143.588V73.1753H150.116V76.1455H140.104V58.9634V58.9634Z" fill="black"/>
<path d="M-0.152344 83.7344H9.8599V86.7046H3.33195V90.6812H8.87798V93.6514H3.33195V97.9463H9.8599V100.916H-0.152344V83.7344Z" fill="black"/>
<path d="M12.5117 83.7344H26.5985V86.9004H21.2972V100.914H17.813V86.9004H12.5117V83.7344Z" fill="black"/>
<path d="M36.0469 83.7344H42.7951C48.2433 83.7344 51.9234 87.6865 51.9234 92.3241C51.9234 96.9616 48.2433 100.914 42.7951 100.914H36.0469V83.7344ZM39.5312 86.9004V97.7477H42.8441C46.0346 97.7477 48.3412 95.3677 48.3412 92.3241C48.3412 89.2559 46.0346 86.9004 42.8441 86.9004H39.5312Z" fill="black"/>
<path d="M55.2871 83.7344H65.2993V86.7046H58.7714V90.6812H64.3174V93.6514H58.7714V97.9463H65.2993V100.916H55.2871V83.7344Z" fill="black"/>
<path d="M70.3296 96.2026C71.3605 97.5272 72.7341 98.3133 74.1321 98.3133C75.5057 98.3133 76.3407 97.5762 76.3407 96.325C76.3407 93.2569 68.4882 93.945 68.4882 88.2276C68.4882 85.5022 70.7213 83.2446 73.9852 83.2446C76.5611 83.2446 78.5494 84.3979 79.9991 86.1414L77.4478 88.4235C76.4414 87.1233 75.3126 86.2883 74.0124 86.2883C72.8102 86.2883 72.0241 87.0744 72.0241 88.0807C72.0241 91.1489 79.8767 90.4362 79.8767 96.2543C79.8278 99.4448 77.3254 101.409 74.1838 101.409C71.287 101.409 69.3259 100.353 67.8027 98.5363L70.3296 96.2026Z" fill="black"/>
<path d="M94.2613 83.7344H98.8254L105.329 100.914H101.624L99.9814 96.4476H93.1107L91.4679 100.914H87.7578L94.2613 83.7344ZM98.8988 93.4773L96.5433 87.0228L94.1878 93.4773H98.8988Z" fill="black"/>
<path d="M107.977 83.7344H117.989V86.7046H111.461V90.6812H117.007V93.6514H111.461V100.916H107.977V83.7344Z" fill="black"/>
<path d="M121.061 83.7344H131.073V86.7046H124.545V90.6812H130.091V93.6514H124.545V100.916H121.061V83.7344Z" fill="black"/>
<path d="M136.889 83.7344H141.453L147.956 100.914H144.252L142.609 96.4476H135.738L134.095 100.914H130.391L136.889 83.7344ZM141.529 93.4773L139.173 87.0228L136.818 93.4773H141.529Z" fill="black"/>
<path d="M150.607 83.7344H154.092V100.914H150.607V83.7344Z" fill="black"/>
<path d="M158.904 83.7344H164.157C167.935 83.7344 170.268 85.6737 170.268 88.8643C170.268 90.926 169.262 92.4709 167.518 93.306L172.918 100.914H168.745L164.181 93.9697H162.389V100.914H158.904V83.7344ZM162.389 86.7046V90.9994H164.352C165.824 90.9994 166.683 90.2134 166.683 88.8153C166.683 87.5151 165.824 86.7046 164.352 86.7046H162.389V86.7046Z" fill="black"/>
<path d="M175.076 83.7344H185.088V86.7046H178.56V90.6812H184.107V93.6514H178.56V97.9463H185.088V100.916H175.076V83.7344Z" fill="black"/>
<path d="M190.121 96.2026C191.151 97.5272 192.525 98.3133 193.923 98.3133C195.297 98.3133 196.132 97.5762 196.132 96.325C196.132 93.2569 188.279 93.945 188.279 88.2276C188.279 85.5022 190.512 83.2446 193.776 83.2446C196.352 83.2446 198.34 84.3979 199.79 86.1414L197.239 88.4235C196.232 87.1233 195.104 86.2883 193.803 86.2883C192.601 86.2883 191.815 87.0744 191.815 88.0807C191.815 91.1489 199.668 90.4362 199.668 96.2543C199.619 99.4448 197.116 101.409 193.975 101.409C191.078 101.409 189.117 100.353 187.594 98.5363L190.121 96.2026Z" fill="black"/>
<path d="M-0.152344 108.505H9.8599V111.475H3.33195V115.452H8.87798V118.422H3.33195V122.717H9.8599V125.687H-0.152344V108.505ZM3.23403 107.034L6.00841 103.721H9.59062L6.40008 107.034H3.23403Z" fill="black"/>
<path d="M12.5117 108.505H26.5985V111.671H21.2972V125.684H17.813V111.671H12.5117V108.505Z" fill="black"/>
<path d="M29.668 108.505H34.9202C38.6983 108.505 41.032 110.444 41.032 113.635C41.032 115.697 40.0256 117.241 38.2849 118.076L43.684 125.684H39.5116L34.9474 118.74H33.155V125.684H29.6707V108.505H29.668ZM33.1523 111.475V115.77H35.1161C36.5876 115.77 37.4471 114.984 37.4471 113.586C37.4471 112.286 36.5876 111.475 35.1161 111.475H33.1523V111.475Z" fill="black"/>
<path d="M50.9179 108.505H55.4821L61.9855 125.684H58.2809L56.6381 121.218H49.7674L48.1245 125.684H44.4199L50.9179 108.505ZM55.5582 118.248L53.2027 111.793L50.8472 118.248H55.5582Z" fill="black"/>
<path d="M64.6367 108.505H69.1029L76.7841 120.799V108.505H80.2684V125.684H75.8022L68.121 113.341V125.684H64.6367V108.505Z" fill="black"/>
<path d="M96.9843 121.414V118.517H92.616V115.351H100.469V122.665C98.8747 124.801 96.1982 126.174 92.9832 126.174C87.4127 126.174 83.6074 122.002 83.6074 117.095C83.6074 112.185 87.312 108.016 92.7357 108.016C95.8528 108.016 98.4041 109.414 99.9762 111.5L97.2264 113.635C96.2444 112.237 94.6995 111.28 92.7357 111.28C89.4962 111.28 87.1896 113.806 87.1896 117.095C87.1896 120.383 89.6186 122.91 92.9805 122.91C94.6043 122.913 96.0024 122.347 96.9843 121.414Z" fill="black"/>
<path d="M104.346 108.505H114.358V111.475H107.83V115.452H113.376V118.422H107.83V122.717H114.358V125.687H104.346V108.505ZM104.639 103.721H108.222L110.996 107.034H107.806L104.639 103.721Z" fill="black"/>
<path d="M118.408 108.505H123.66C127.439 108.505 129.77 110.444 129.77 113.635C129.77 115.697 128.763 117.241 127.022 118.076L132.422 125.684H128.249L123.685 118.74H121.892V125.684H118.408V108.505ZM121.892 111.475V115.77H123.856C125.328 115.77 126.187 114.984 126.187 113.586C126.187 112.286 125.328 111.475 123.856 111.475H121.892V111.475Z" fill="black"/>
<path d="M134.582 108.505H144.594V111.475H138.066V115.452H143.612V118.422H138.066V122.717H144.594V125.687H134.582V108.505V108.505Z" fill="black"/>
<path d="M149.626 120.974C150.657 122.298 152.031 123.084 153.429 123.084C154.803 123.084 155.638 122.347 155.638 121.096C155.638 118.028 147.785 118.716 147.785 112.999C147.785 110.276 150.018 108.016 153.282 108.016C155.858 108.016 157.846 109.169 159.296 110.912L156.745 113.194C155.738 111.894 154.609 111.059 153.309 111.059C152.107 111.059 151.321 111.845 151.321 112.852C151.321 115.92 159.174 115.207 159.174 121.023C159.125 124.213 156.622 126.177 153.481 126.177C150.584 126.177 148.623 125.122 147.1 123.305L149.626 120.974Z" fill="black"/>
<path d="M55.747 173.173C56.2122 173.173 56.6174 173.527 56.4026 174.419L54.2375 174.922C54.6155 173.916 55.2438 173.173 55.747 173.173ZM56.9438 176.66H56.5168C55.9755 177.302 55.3962 177.806 54.8168 177.806C54.2239 177.806 53.9219 177.452 53.9219 176.66C53.9219 176.334 53.96 176.005 54.0226 175.703L57.5123 174.558C58.1923 172.945 57.3736 172.241 56.4162 172.241C54.7651 172.241 52.8883 174.999 52.8883 177.417C52.8883 178.499 53.4051 179.092 54.2103 179.092C55.1568 179.092 56.1387 178.173 56.9438 176.66ZM56.253 171.599L58.7091 169.306V169.042H57.3872L55.8749 171.599H56.253ZM48.7186 173.212H49.8773L48.0386 178.238C47.8754 178.665 48.1012 179.095 48.5418 179.095C49.5863 179.095 51.2754 178.061 51.8683 176.652H51.542C51.0768 177.145 50.182 177.797 49.4122 177.936L51.1013 173.212H52.8258L53.0407 172.493H51.3652L52.0071 170.679H51.3407L50.1439 172.493L48.7213 172.695V173.212H48.7186ZM47.1573 172.972C47.2961 172.507 46.9806 172.241 46.7412 172.241C45.7348 172.241 44.538 173.146 44.0593 174.419H44.3857C44.7121 173.954 45.267 173.437 45.7838 173.348L43.858 178.36C43.6812 178.826 44.0348 179.092 44.2742 179.092C45.2316 179.092 46.3522 178.173 46.831 176.913H46.5046C46.1782 177.379 45.6233 177.895 45.1065 177.985L47.1573 172.972ZM47.5109 170.451C47.9652 170.451 48.3433 170.086 48.3433 169.618C48.3433 169.164 47.9652 168.786 47.5109 168.786C47.0458 168.786 46.6786 169.164 46.6786 169.618C46.6786 170.086 47.0458 170.451 47.5109 170.451ZM36.4134 178.159C36.1605 178.725 36.427 179.092 36.9792 179.092C37.3192 179.092 37.4715 179.005 37.6102 178.638L38.9457 175.099C39.5632 174.343 40.8361 173.538 41.3393 173.538C41.7038 173.538 41.6548 173.84 41.4155 174.294L39.3619 178.235C39.1606 178.627 39.4245 179.092 39.8651 179.092C40.8715 179.092 42.0683 178.186 42.547 176.913H42.2206C41.8942 177.379 41.3393 177.895 40.8225 177.985L42.5851 174.422C42.8108 173.968 42.9251 173.541 42.9251 173.201C42.9251 172.621 42.5987 172.243 41.9921 172.243C41.1217 172.243 40.2404 173.225 39.196 174.436V173.503C39.196 172.836 38.9811 172.243 38.3773 172.243C37.9992 172.243 37.6347 172.57 37.2947 173.037V173.163C37.9502 173.125 38.2385 174.106 37.7734 175.14L36.4134 178.159ZM36.389 173.777C36.6283 172.959 36.5032 172.241 35.8722 172.241C35.1296 172.241 34.9392 172.806 34.1831 174.433V173.5C34.1831 172.833 33.9682 172.241 33.3643 172.241C32.6599 172.241 32.018 173.337 31.5256 174.419H31.852C32.192 173.927 32.5075 173.639 32.7578 173.639C33.0597 173.639 33.2229 174.104 32.7578 175.137L31.3978 178.159C31.1448 178.725 31.4114 179.092 31.9636 179.092C32.3035 179.092 32.4559 179.005 32.5946 178.638L33.9301 175.099C34.3082 174.634 34.6482 174.229 35.0752 173.777H36.389ZM28.6561 173.173C29.1212 173.173 29.5265 173.527 29.3116 174.419L27.1465 174.922C27.5218 173.916 28.1529 173.173 28.6561 173.173ZM29.8528 176.66H29.4258C28.8845 177.302 28.3052 177.806 27.7258 177.806C27.1329 177.806 26.831 177.452 26.831 176.66C26.831 176.334 26.869 176.005 26.9316 175.703L30.4213 174.558C31.1013 172.945 30.2826 172.241 29.3252 172.241C27.6741 172.241 25.7974 174.999 25.7974 177.417C25.7974 178.499 26.3142 179.092 27.1193 179.092C28.0631 179.092 29.045 178.173 29.8528 176.66ZM21.6276 173.212H22.7863L20.9476 178.238C20.7844 178.665 21.0102 179.095 21.4508 179.095C22.4953 179.095 24.1844 178.061 24.7774 176.652H24.451C23.9859 177.145 23.091 177.797 22.3212 177.936L24.0103 173.212H25.7348L25.9497 172.493H24.2715L24.9134 170.679H24.247L23.0502 172.493L21.6276 172.695V173.212V173.212ZM15.2683 177.128C15.2683 175.578 16.9928 173.475 17.9638 173.475C18.1787 173.475 18.38 173.5 18.5568 173.552L17.5504 176.233C16.971 176.938 16.0762 177.795 15.66 177.795C15.4179 177.795 15.2683 177.593 15.2683 177.128ZM20.5696 171.952L20.0419 171.914L19.4489 172.493H19.3238C16.4515 172.493 13.9709 175.717 13.9709 178.061C13.9709 178.717 14.3735 179.095 15.0045 179.095C15.747 179.095 16.4787 178.037 17.2974 176.903L17.2593 177.305C17.1587 178.464 17.5123 179.095 18.1161 179.095C18.8206 179.095 19.4625 177.999 19.9548 176.916H19.6285C19.2885 177.408 18.9729 177.697 18.7227 177.697C18.4589 177.697 18.2685 177.218 18.7227 176.198L20.5696 171.952ZM14.4496 173.777C14.689 172.959 14.5639 172.241 13.9328 172.241C13.1903 172.241 12.9999 172.806 12.2437 174.433V173.5C12.2437 172.833 12.0288 172.241 11.425 172.241C10.7205 172.241 10.0786 173.337 9.58629 174.419H9.91269C10.2527 173.927 10.5682 173.639 10.8184 173.639C11.1204 173.639 11.2836 174.104 10.8184 175.137L9.45845 178.159C9.20549 178.725 9.47205 179.092 10.0242 179.092C10.3642 179.092 10.5165 179.005 10.6552 178.638L11.9908 175.099C12.3688 174.634 12.7088 174.229 13.1359 173.777H14.4496ZM4.80185 178.842L4.92697 178.45C3.25146 178.135 3.03658 178.135 3.7057 176.31L4.38569 174.433H6.238C7.07031 174.433 7.08119 174.773 6.95607 175.679H7.43479L8.54454 172.643H8.06582C7.64967 173.361 7.32327 173.889 6.4148 173.889H4.58969L5.56072 171.231C5.86264 170.388 6.03944 170.211 7.17367 170.211H7.97879C9.1511 170.211 9.28981 170.527 9.28981 171.71H9.75493L10.1466 169.646H3.1889L3.06378 170.037C4.41017 170.315 4.53801 170.44 3.90698 172.178L2.39467 176.31C1.76364 178.034 1.4998 178.173 -0.0478703 178.45L-0.162109 178.842H4.80185V178.842Z" fill="black"/>
<path d="M38.8832 157.427C39.3483 157.427 39.7536 157.781 39.5387 158.673L37.3736 159.176C37.7489 158.173 38.38 157.427 38.8832 157.427ZM40.08 160.917H39.6529C39.1117 161.559 38.5323 162.062 37.9529 162.062C37.36 162.062 37.0581 161.709 37.0581 160.917C37.0581 160.591 37.0961 160.262 37.1587 159.96L40.6484 158.815C41.3284 157.202 40.5097 156.497 39.5523 156.497C37.9013 156.497 36.0245 159.255 36.0245 161.673C36.0245 162.756 36.5413 163.349 37.3464 163.349C38.2902 163.349 39.2749 162.43 40.08 160.917ZM39.3864 155.855L41.8425 153.562V153.299H40.5206L39.0083 155.855H39.3864ZM31.8548 157.466H33.0135L31.1748 162.492C31.0116 162.919 31.2373 163.349 31.678 163.349C32.7224 163.349 34.4115 162.315 35.0045 160.906H34.6781C34.213 161.399 33.3181 162.051 32.5483 162.19L34.2375 157.466H35.9619L36.1768 156.748H34.5013L35.1432 154.933H34.4768L33.28 156.748L31.8575 156.949V157.466H31.8548ZM30.2935 157.226C30.4322 156.761 30.1167 156.495 29.8773 156.495C28.8709 156.495 27.6741 157.4 27.1954 158.673H27.5218C27.8482 158.208 28.4031 157.691 28.9199 157.602L26.9942 162.614C26.8174 163.08 27.1709 163.346 27.4103 163.346C28.3677 163.346 29.4884 162.427 29.9671 161.167H29.6407C29.3143 161.633 28.7594 162.149 28.2426 162.239L30.2935 157.226ZM30.6471 154.708C31.1013 154.708 31.4794 154.343 31.4794 153.875C31.4794 153.421 31.1013 153.043 30.6471 153.043C30.182 153.043 29.8148 153.421 29.8148 153.875C29.8148 154.343 30.1792 154.708 30.6471 154.708ZM23.9451 162.239L27.4593 153.032L27.345 152.893L25.1418 153.146V153.41L25.5689 153.736C25.9606 154.038 25.8327 154.329 25.4818 155.26L22.7374 162.489C22.5361 162.881 22.7999 163.346 23.2406 163.346C24.247 163.346 25.3186 162.44 25.7974 161.167H25.471C25.1418 161.635 24.4619 162.152 23.9451 162.239ZM17.2702 161.382C17.2702 159.832 18.9947 157.729 19.9657 157.729C20.1806 157.729 20.3819 157.754 20.5587 157.806L19.5523 160.487C18.9729 161.192 18.0781 162.049 17.6619 162.049C17.4198 162.051 17.2702 161.85 17.2702 161.382ZM22.5715 156.206L22.0438 156.168L21.4508 156.748H21.3257C18.4534 156.748 15.9728 159.971 15.9728 162.315C15.9728 162.971 16.3754 163.349 17.0064 163.349C17.7489 163.349 18.4806 162.291 19.2993 161.157L19.2613 161.559C19.1606 162.718 19.5142 163.349 20.118 163.349C20.8225 163.349 21.4644 162.253 21.9568 161.17H21.6304C21.2904 161.663 20.9748 161.951 20.7246 161.951C20.4608 161.951 20.2704 161.472 20.7246 160.452L22.5715 156.206ZM9.74949 164.57C9.74949 163.904 10.3914 163.488 11.3108 163.12C11.6127 163.273 12.0669 163.436 12.6707 163.637C13.6282 163.953 13.9927 164.078 13.9927 164.369C13.9927 164.986 12.9482 165.451 11.5229 165.451C10.3288 165.451 9.74949 165.198 9.74949 164.57ZM12.3579 160.501C11.9418 160.501 11.7786 160.147 11.7786 159.745C11.7786 158.624 12.3824 156.973 13.329 156.973C13.7451 156.973 13.9083 157.327 13.9083 157.729C13.9083 158.853 13.3018 160.501 12.3579 160.501ZM15.0915 163.953C15.0915 163.148 14.3735 162.857 13.2011 162.503C12.1948 162.201 11.7405 162.111 11.7405 161.785C11.7405 161.521 11.9554 161.206 12.3824 160.98C14.0335 160.893 15.1024 159.405 15.1024 158.159C15.1024 157.895 15.0507 157.667 14.9637 157.466H16.3618L16.5766 156.748H14.3599C14.096 156.584 13.7805 156.495 13.465 156.495C11.7133 156.495 10.5818 158.031 10.5818 159.277C10.5818 160.221 11.1856 160.814 11.9173 160.953C11.0986 161.317 10.6444 161.747 10.6444 162.25C10.6444 162.541 10.745 162.742 10.9844 162.93C9.09398 163.485 8.35142 164.113 8.35142 165.008C8.35142 165.878 9.49653 166.243 10.8592 166.243C13.1631 166.246 15.0915 164.997 15.0915 163.953ZM6.28696 158.562C7.11927 158.562 7.13015 158.902 7.00503 159.807H7.48375L8.5935 156.772H8.11478C7.69863 157.49 7.37223 158.018 6.46376 158.018H4.63865L5.558 155.485C5.85992 154.642 6.03672 154.479 7.17095 154.479H7.97607C9.14838 154.479 9.28709 154.795 9.28709 155.964H9.75221L10.1439 153.9H3.1889L3.06378 154.291C4.41017 154.569 4.53801 154.694 3.90698 156.432L2.39467 160.564C1.76364 162.288 1.4998 162.427 -0.0478703 162.704L-0.162109 163.096H7.57079L8.95526 160.904H8.42758C7.54631 161.736 6.43656 162.527 4.88889 162.527C2.83531 162.527 3.0257 162.44 3.7057 160.564L4.43737 158.562H6.28696V158.562ZM7.29335 153.285L9.74949 151.596V151.332H8.26438L6.90439 153.285H7.29335V153.285Z" fill="black"/>
<path d="M38.0637 141.684C38.5288 141.684 38.9341 142.038 38.7192 142.93L36.5541 143.433C36.9295 142.427 37.5605 141.684 38.0637 141.684ZM39.2605 145.174H38.8334C38.2922 145.816 37.7128 146.319 37.1335 146.319C36.5405 146.319 36.2386 145.965 36.2386 145.174C36.2386 144.847 36.2767 144.518 36.3392 144.216L39.829 143.071C40.509 141.458 39.6902 140.754 38.7328 140.754C37.0818 140.754 35.205 143.512 35.205 145.93C35.205 147.013 35.7218 147.605 36.5269 147.605C37.4707 147.603 38.4554 146.683 39.2605 145.174ZM38.5669 140.109L41.023 137.816V137.552H39.7011L38.1888 140.109H38.5669ZM31.3508 141.722H32.2701L30.4314 146.749C30.2682 147.176 30.494 147.605 30.9346 147.605C31.9791 147.605 33.6682 146.572 34.2612 145.163H33.9348C33.4697 145.655 32.5748 146.308 31.805 146.447L33.4941 141.722H35.2186L35.4335 141.004H33.758L34.3999 139.19H33.7335L32.5367 141.004L31.3535 141.205V141.722H31.3508ZM30.445 142.288C30.6844 141.469 30.5593 140.751 29.9282 140.751C29.1857 140.751 28.9953 141.317 28.2391 142.943V142.011C28.2391 141.344 28.0243 140.751 27.4204 140.751C26.7159 140.751 26.074 141.847 25.5817 142.93H25.9081C26.2481 142.438 26.5636 142.149 26.8139 142.149C27.1158 142.149 27.279 142.614 26.8139 143.648L25.4539 146.67C25.2009 147.236 25.4675 147.603 26.0196 147.603C26.3596 147.603 26.5119 147.516 26.6507 147.149L27.9862 143.61C28.3643 143.145 28.7042 142.739 29.1313 142.288H30.445ZM22.7094 141.684C23.1745 141.684 23.5798 142.038 23.3649 142.93L21.1998 143.433C21.5752 142.427 22.2062 141.684 22.7094 141.684ZM23.9062 145.174H23.4792C22.9379 145.816 22.3585 146.319 21.7792 146.319C21.1862 146.319 20.8843 145.965 20.8843 145.174C20.8843 144.847 20.9224 144.518 20.985 144.216L24.4747 143.071C25.1547 141.458 24.336 140.754 23.3785 140.754C21.7275 140.754 19.8507 143.512 19.8507 145.93C19.8507 147.013 20.3675 147.605 21.1726 147.605C22.1192 147.603 23.1011 146.683 23.9062 145.174ZM15.3546 146.583C15.0146 146.583 14.5223 146.267 14.5223 145.99C14.5223 145.903 14.6746 145.511 14.8623 145.019L15.428 143.52C16.0319 142.802 16.9512 142.035 17.468 142.035C17.7835 142.035 18.0229 142.236 18.0229 142.701C18.0256 144.078 16.7391 146.583 15.3546 146.583ZM19.323 142.149C19.323 141.129 18.945 140.751 18.2405 140.751C17.3592 140.751 16.5269 141.684 15.6973 142.816L17.7971 137.289L17.6829 137.15L15.4797 137.403V137.667L15.9068 137.993C16.2984 138.295 16.1706 138.611 15.8197 139.516L13.554 145.362C13.3908 145.789 13.1895 146.294 13.1895 146.433C13.1895 147.037 14.0082 147.605 14.7508 147.605C16.4616 147.603 19.323 144.518 19.323 142.149ZM12.4714 141.483C12.6101 141.018 12.2946 140.751 12.0553 140.751C11.0489 140.751 9.85208 141.657 9.37337 142.93H9.69976C10.0262 142.465 10.581 141.948 11.0978 141.858L9.17209 146.871C8.99529 147.336 9.34889 147.603 9.58825 147.603C10.5457 147.603 11.6663 146.683 12.145 145.424H11.8186C11.4922 145.889 10.9374 146.406 10.4206 146.496L12.4714 141.483ZM12.8223 138.964C13.2765 138.964 13.6546 138.6 13.6546 138.132C13.6546 137.678 13.2765 137.299 12.8223 137.299C12.3572 137.299 11.99 137.678 11.99 138.132C11.9927 138.597 12.3572 138.964 12.8223 138.964ZM7.74682 138.156H3.16366L3.03854 138.548C4.38493 138.825 4.51277 138.951 3.88173 140.689L2.39662 144.82C1.76559 146.545 1.50175 146.683 -0.0459172 146.961L-0.160156 147.353H6.81659L8.3289 144.657H7.80122C6.94443 145.601 5.93803 146.787 4.38765 146.787C3.21534 146.787 3.07662 146.586 3.70765 144.823L5.19276 140.691C5.8102 138.967 6.08763 138.828 7.6353 138.551L7.74682 138.156Z" fill="black"/>
<path d="M25.7213 20.0981C25.9661 19.8533 26.2136 19.5894 26.4584 19.3256H26.453C26.91 18.8061 27.3588 18.3137 27.8919 17.8595C28.0524 17.7154 28.2101 17.5875 28.3597 17.4842C28.4032 17.4406 28.4032 17.3536 28.4468 17.3128C28.2319 17.3998 28.1013 17.5712 27.8864 17.6582C27.8429 17.6582 27.7994 17.6147 27.8429 17.5712C27.9952 17.457 28.1503 17.34 28.3026 17.2258C28.2944 17.2258 28.2836 17.2258 28.2727 17.2258C28.2292 17.2258 28.2292 17.1822 28.2292 17.1387C27.6688 17.0517 27.2364 17.4406 26.8501 17.7861C26.7631 17.8296 26.6788 17.7426 26.6352 17.7426C25.9879 17.9574 25.5146 18.5177 24.8673 18.7761C24.8673 18.7326 24.8673 18.7326 24.8673 18.6891C24.6089 18.7761 24.3586 18.9312 24.0921 18.991C23.7031 19.0781 23.3604 19.0345 23.015 19.0345C22.4927 19.0862 21.9705 19.2032 21.4482 19.3147C21.4319 19.3174 21.4183 19.3229 21.402 19.3256C21.1219 19.4017 20.858 19.5078 20.5996 19.6493C20.5887 19.6547 20.5806 19.6601 20.5697 19.6656C20.5479 19.6928 20.5262 19.7173 20.5071 19.739C20.4147 19.8397 20.3358 19.9349 20.2107 19.9974C19.9468 20.1334 19.7292 20.3673 19.4953 20.5577C19.479 20.5713 19.4518 20.5768 19.4273 20.5795C19.1961 20.8025 18.9676 21.0256 18.7337 21.2432C18.7174 21.2595 18.6494 21.2676 18.6032 21.2595C18.6032 21.2568 18.6059 21.2568 18.6059 21.2568C18.614 21.2432 18.6222 21.2296 18.6303 21.216C18.6657 21.1561 18.7038 21.0936 18.7419 21.0337C18.7827 20.9657 18.8262 20.9004 18.8697 20.8324C18.9295 20.7427 18.9894 20.6556 19.0519 20.5713C19.0683 20.5496 19.0628 20.5305 19.0492 20.5142C19.0356 20.5006 19.0139 20.4924 18.9894 20.4924C19.2043 20.283 19.4599 20.1062 19.7129 19.9512C19.7129 19.9485 19.7129 19.9457 19.7129 19.943C19.683 19.9539 19.6422 19.9294 19.6639 19.8995C19.6911 19.8614 19.7129 19.8206 19.7374 19.7825C19.7428 19.7689 19.7455 19.7581 19.751 19.7445C19.7401 19.7336 19.7292 19.7227 19.7183 19.7091C19.6476 19.7553 19.5742 19.7961 19.5171 19.8505C19.4137 19.943 19.3321 20.1334 19.1771 20.1307C19.1662 20.1307 19.1363 20.128 19.1118 20.1225C19.0927 20.1198 19.0764 20.1144 19.0655 20.1062C19.0683 20.1035 19.0683 20.1008 19.071 20.0953C19.0737 20.0926 19.0764 20.0872 19.0764 20.0845C19.0791 20.0817 19.0819 20.0763 19.0819 20.0736C19.0873 20.06 19.0955 20.0491 19.1036 20.0355C19.1118 20.0219 19.1172 20.011 19.1254 19.9974C19.1308 19.9865 19.1363 19.9784 19.1417 19.9675C19.1526 19.9485 19.1607 19.9321 19.1716 19.9131C19.1798 19.8995 19.1879 19.8859 19.1934 19.875C19.2124 19.8424 19.2315 19.8125 19.2478 19.7798C19.2559 19.7635 19.2668 19.7499 19.275 19.7336C19.2913 19.7064 19.3049 19.6819 19.3212 19.6547C19.343 19.6193 19.3212 19.5894 19.2886 19.5785C19.3675 19.4752 19.4654 19.3881 19.5851 19.3201H19.5715C19.7374 19.2358 19.9006 19.1352 20.0665 19.0427C20.091 19.0209 20.1127 19.0019 20.1372 18.9801C19.8924 19.0617 19.6694 19.1733 19.4518 19.3174C19.4518 19.3174 19.3947 19.3419 19.3783 19.3555C19.3783 19.3555 19.3294 19.3745 19.2695 19.3174C19.2641 19.3093 19.2587 19.3011 19.2587 19.2848C19.3022 19.1977 19.43 19.1542 19.5171 19.0699C19.5606 19.0699 19.6041 19.0699 19.6041 19.1134C20.9831 18.0363 22.879 18.2947 24.4756 17.7344C24.6061 17.6474 24.734 17.563 24.8645 17.476C25.0794 17.389 25.2535 17.1741 25.5119 17.0462C25.8573 16.7878 26.1157 16.4859 26.2436 16.0562C26.2436 16.0126 26.2 15.9691 26.2 15.9691C25.6397 16.573 24.9924 17.0462 24.3042 17.3917C23.3985 17.8649 22.4084 17.7806 21.4591 17.9085C21.5026 17.8214 21.5897 17.8214 21.674 17.8214C21.674 17.6909 21.761 17.6501 21.8454 17.563C21.8889 17.563 21.9324 17.563 21.9759 17.563C22.0194 17.563 22.0194 17.476 22.063 17.476C22.15 17.476 22.2778 17.4325 22.2343 17.4325C22.1038 17.2611 21.8454 17.563 21.6305 17.4325C21.7175 17.3454 21.674 17.2176 21.761 17.1741C21.8046 17.1741 21.8916 17.1741 21.9324 17.1741C21.9324 17.087 22.0194 17.0027 22.0194 17.0027C22.6668 16.6138 23.2706 16.3118 23.8717 15.9691C23.7412 15.9691 23.6569 16.0997 23.5263 16.0126C23.6133 16.0126 23.5263 15.8821 23.6133 15.8821C24.0866 15.7515 24.4756 15.4931 24.9489 15.3218C24.7775 15.3218 24.6469 15.4523 24.4756 15.3218C24.5626 15.2783 24.6061 15.1912 24.734 15.1912C24.734 15.1477 24.734 15.1042 24.734 15.0607C24.734 15.0171 24.7775 15.0171 24.821 15.0171C24.7775 15.0171 24.734 14.9736 24.734 14.9736C24.7775 14.8866 24.9053 14.9301 24.9924 14.8431C24.9489 14.8431 24.8618 14.8431 24.8618 14.7995C24.9924 14.6282 25.2073 14.5847 25.4221 14.5411C25.3786 14.4541 25.2508 14.5411 25.2508 14.4541C25.2508 14.4106 25.2943 14.4106 25.3378 14.4106C25.2943 14.4106 25.2943 14.4106 25.2508 14.4106C25.1637 14.3671 25.2073 14.28 25.2073 14.2392C25.4657 13.9373 25.4657 13.5483 25.5962 13.2056C25.5527 13.2056 25.5092 13.2056 25.5092 13.1621C25.0794 13.6354 24.3885 13.8095 23.7412 13.9808C23.6977 13.9808 23.5698 13.9808 23.5263 13.9808C23.3114 14.0679 23.0095 14.0679 22.7946 13.9373C22.6233 13.8503 22.5362 13.7224 22.3649 13.5919C22.0194 13.377 21.674 13.2029 21.2878 13.0751C20.2107 12.7296 19.09 12.5583 17.9694 12.6018C18.4427 12.3434 18.9676 12.3216 19.479 12.172C20.2107 11.9572 20.9015 11.6988 21.6767 11.7423C21.5462 11.6988 21.3748 11.7423 21.247 11.7423C20.6431 11.6988 20.0393 11.8728 19.3947 12.0007C18.9649 12.0877 18.576 12.2591 18.1435 12.3461C17.8851 12.4332 17.7545 12.6916 17.4526 12.648C17.4526 12.648 17.4526 12.561 17.4526 12.5175C17.8824 12.0007 18.4019 11.4839 19.09 11.4404C19.8652 11.3098 20.5996 11.4404 21.3748 11.5274C21.9351 11.5709 22.4519 11.6988 23.0122 11.8293C23.2271 11.8293 23.2706 12.1748 23.4447 12.2183C23.7031 12.3053 23.9615 12.2183 24.2199 12.3896C24.2199 12.3026 24.1764 12.2183 24.2199 12.1312C24.3913 11.9599 24.6089 12.1748 24.7802 12.0877C25.1257 11.8728 24.4783 11.4839 24.3069 11.182C24.3069 11.1384 24.3505 11.0949 24.3505 11.0949C24.6959 11.3968 24.9543 11.7423 25.3841 11.9572C25.5989 12.0442 26.1157 12.172 26.0314 11.9136C25.8165 11.4404 25.3841 11.0514 25.0413 10.6216C25.0413 10.5781 25.0413 10.4911 25.0413 10.4503C24.9543 10.4503 24.9543 10.4068 24.9108 10.3633C24.9108 10.3197 24.9108 10.2327 24.9108 10.1919C24.7394 10.1049 24.7802 9.93349 24.6959 9.80294C24.5653 9.58806 24.6524 9.28614 24.5653 9.02774C24.4783 8.76934 24.4348 8.55447 24.394 8.29607C24.2634 7.56439 24.0921 6.91704 24.005 6.22616C23.918 5.40745 24.4783 4.7601 24.8673 4.02842C25.1692 3.51163 25.5146 2.99483 26.0749 2.64939C26.2055 2.1326 26.5482 1.70012 26.8936 1.27036C27.2391 0.848768 27.8103 0.59309 28.2237 0.408131C28.8248 0.138853 29.3688 -0.0297852 29.3688 -0.0297852H-0.210938V22.78H20.7383C21.5598 22.1897 22.3785 21.9096 23.5236 21.3438C24.0649 21.0854 25.3025 20.5196 25.7213 20.0981ZM19.0927 17.0109C19.0057 17.0109 18.8343 17.0544 18.8779 16.9674C18.9214 16.7525 19.2233 16.7525 19.3947 16.6654C19.4817 16.6219 19.6095 16.5349 19.6966 16.5784C19.7836 16.709 19.9115 16.6654 19.9985 16.7498C19.7401 17.0109 19.3947 16.883 19.0927 17.0109ZM12.4995 16.0616C12.4995 16.0616 12.456 16.0181 12.456 15.9746C13.0163 15.2429 13.4461 14.552 13.835 13.7768C14.3953 13.4749 14.8605 13.037 15.3011 12.5692C16.0328 11.794 16.8107 11.1031 17.7137 10.6733C18.0592 10.5428 18.4889 10.5863 18.8343 10.7168C18.7038 10.8882 18.4889 10.8474 18.3176 10.9752C18.274 10.9752 18.2305 10.9752 18.187 10.9317C18.2305 10.8882 18.2305 10.8447 18.2305 10.8012C17.8008 11.2744 17.1969 11.492 16.8515 12.0524C16.5931 12.4821 16.4217 13.0451 15.8614 13.173C15.6901 13.2165 15.9049 13.0424 15.8179 13.0859C14.4824 13.9074 13.5331 14.9002 12.4995 16.0616ZM16.0763 13.2192C16.0328 13.3063 15.9865 13.3144 15.9457 13.3906C15.9022 13.4776 15.8587 13.5211 15.7744 13.5619C15.7309 13.5619 15.6873 13.5619 15.6873 13.5184C15.7309 13.3471 15.8587 13.173 16.0328 13.1295C16.0763 13.1322 16.0763 13.1757 16.0763 13.2192ZM18.0782 19.6765C18.0592 19.7227 18.0156 19.7635 17.9721 19.8016C18.0265 19.8125 18.0646 19.8369 18.0292 19.8696C17.9286 19.9621 17.8334 20.0545 17.7028 20.0981C17.6947 20.1008 17.6675 20.1062 17.6376 20.1062C17.5859 20.1579 17.5315 20.2069 17.4771 20.2558C17.4254 20.3021 17.1888 20.2694 17.2622 20.2041C17.371 20.1062 17.4716 20.0029 17.5804 19.9022C17.6403 19.8478 17.7056 19.7934 17.76 19.7309C17.7899 19.6955 17.8144 19.6629 17.8524 19.6357C17.8851 19.6112 18.1136 19.5921 18.0782 19.6765ZM17.3057 19.3201C17.303 19.3229 17.2976 19.3256 17.2948 19.3283C17.1344 19.4425 16.9739 19.5568 16.8025 19.6574C16.6176 19.7635 16.4244 19.8451 16.234 19.9376C16.2313 19.9349 16.2313 19.9294 16.2286 19.9267C16.215 19.9077 16.1851 19.8941 16.1552 19.9104C15.992 19.9974 15.8533 20.1144 15.72 20.2395C15.7009 20.2585 15.6792 20.2776 15.6601 20.2966L15.6574 20.2993L15.6547 20.3021C15.6329 20.3211 15.6139 20.3429 15.5921 20.3619C15.5894 20.3646 15.5867 20.3673 15.584 20.3701L15.5813 20.3728C15.5513 20.4027 15.5214 20.4353 15.4888 20.4734C15.467 20.4979 15.4589 20.5142 15.4317 20.5332C15.4045 20.5523 15.331 20.5496 15.3365 20.5006C15.3365 20.4979 15.3365 20.4952 15.3365 20.4924C15.312 20.506 15.2848 20.5196 15.2603 20.5305C15.2358 20.5414 15.2141 20.555 15.1923 20.5686C15.1841 20.5659 15.1733 20.5632 15.1624 20.5632C15.1515 20.5632 15.1406 20.5659 15.1325 20.574C15.0808 20.6148 15.0264 20.6584 14.9774 20.7046C14.8877 20.7862 14.8033 20.876 14.7272 20.9712C14.7245 20.9712 14.7245 20.9739 14.7245 20.9739C14.7217 20.9766 14.719 20.982 14.7163 20.9848C14.7109 20.9902 14.7081 20.9956 14.7027 21.0011C14.6973 21.0065 14.6945 21.012 14.6891 21.0201C14.6891 21.0228 14.6864 21.0228 14.6837 21.0256C14.6728 21.0392 14.6646 21.0555 14.6537 21.0691C14.6537 21.0691 14.6537 21.0718 14.651 21.0718C14.6429 21.08 14.632 21.0854 14.6157 21.0881C14.6102 21.08 14.6048 21.0718 14.5993 21.0636C14.5939 21.0582 14.5912 21.05 14.5885 21.0419C14.5749 21.0201 14.564 20.9956 14.5504 20.9739V20.9712C14.5477 20.963 14.5422 20.9576 14.5395 20.9494C14.5857 20.9004 14.632 20.846 14.6755 20.7944C14.6782 20.7916 14.6809 20.7862 14.6837 20.7835C14.7 20.7644 14.7136 20.7454 14.7272 20.7291C14.7517 20.6992 14.7761 20.6665 14.8006 20.6366C14.8088 20.6257 14.8169 20.6148 14.8278 20.6012C14.8741 20.5387 14.9203 20.4788 14.9638 20.419C14.9638 20.4163 14.9665 20.4163 14.9665 20.4136C14.972 20.4054 14.9801 20.3945 14.9856 20.3864C15.0073 20.3564 15.0264 20.3238 15.0454 20.2939C15.0617 20.2667 15.0781 20.2368 15.0917 20.2069C15.0917 20.2041 15.0944 20.2014 15.0944 20.2014C15.0971 20.1987 15.0971 20.196 15.0998 20.1933C15.1025 20.1878 15.1053 20.1824 15.108 20.1769C15.1243 20.1443 15.1379 20.1117 15.1488 20.0763C15.1488 20.0736 15.1515 20.0681 15.1515 20.0654C15.1542 20.0573 15.1569 20.0464 15.1624 20.0382C15.1678 20.0219 15.1705 20.0056 15.176 19.992C15.176 19.9893 15.1787 19.9838 15.1787 19.9811C15.1841 19.9593 15.1896 19.9403 15.195 19.9185C15.1977 19.9077 15.195 19.8968 15.1896 19.8886C15.2358 19.807 15.2929 19.7309 15.3609 19.6547C15.3555 19.6574 15.3473 19.6629 15.3419 19.6656C15.2793 19.7064 15.2385 19.7608 15.1814 19.8043C15.1352 19.8397 15.0481 19.7825 15.1025 19.739C15.1406 19.7118 15.1678 19.6792 15.2005 19.6493C15.2032 19.6465 15.2032 19.6438 15.2059 19.6411C15.2766 19.5704 15.3446 19.4806 15.4262 19.4235C15.4752 19.3881 15.5187 19.3582 15.5595 19.3229C15.5649 19.3174 15.5731 19.312 15.5785 19.3065C15.6085 19.2657 15.6411 19.2304 15.6737 19.1977C15.6765 19.195 15.6765 19.195 15.6792 19.1923C16.0926 18.7952 16.7862 18.8115 17.3302 18.5585C17.5451 18.4715 17.8035 18.6021 18.0211 18.5585C18.1516 18.5585 18.2795 18.5585 18.41 18.6456C18.0156 18.8605 17.6593 19.0998 17.3057 19.3201ZM18.187 16.3227C18.1435 16.2792 18.3176 16.3227 18.3584 16.2357C18.2278 16.2357 18.1435 16.2357 18.0129 16.2357C17.9694 16.2357 17.9694 16.1922 17.9694 16.1486C17.7545 16.1922 17.4961 16.2792 17.2785 16.32C16.9766 16.407 16.7182 16.6219 16.3728 16.709C15.8995 16.8803 15.5105 17.2693 14.9937 17.4406C14.9502 17.4406 14.9502 17.3971 14.9502 17.3536C14.9937 17.223 15.1651 17.1822 15.2521 17.0517C15.2521 17.0082 15.2521 16.9646 15.2086 16.9646C15.5541 16.4914 16.0273 16.233 16.4598 15.844C16.4598 15.8005 16.4598 15.757 16.4598 15.7134C16.5904 15.5421 16.8052 15.455 16.8896 15.2402C16.9331 15.1096 17.1044 14.9383 17.3193 14.8512C17.2758 14.8077 17.1888 14.8077 17.1888 14.7207C17.0174 14.7207 16.8433 14.8077 16.672 14.6771C16.7536 14.5955 16.8433 14.552 16.9412 14.5248C16.9032 14.5167 16.8705 14.4976 16.8433 14.4623C16.7998 14.3752 16.9276 14.28 17.0582 14.2474C17.2296 14.2039 17.4472 14.2039 17.575 14.076C17.2731 14.0325 16.9276 14.1631 16.6257 13.989C16.8406 13.4287 17.186 12.9554 17.7028 12.697C17.7464 12.697 17.8334 12.697 17.8334 12.7405C17.8334 12.9554 17.7028 13.1295 17.488 13.1703C17.8334 13.2573 18.1788 13.2573 18.5216 13.4287C18.478 13.5157 18.391 13.4722 18.3502 13.4722C18.5651 13.6027 18.8235 13.5157 19.0411 13.6871C18.9105 13.8176 18.7827 13.6871 18.6521 13.6871C19.9876 14.076 21.4102 14.3779 22.5308 15.2375C21.5815 15.7107 20.5915 15.9283 19.5579 16.1432C19.4273 16.1432 19.343 16.1432 19.2124 16.0997C19.2124 16.1432 19.2124 16.2302 19.1689 16.2302C18.9975 16.2302 18.867 16.2302 18.7391 16.3173C18.576 16.407 18.3176 16.4506 18.187 16.3227Z" fill="#000091"/>
<path d="M62.5209 -0.0214844H37.9812C37.9812 -0.0214844 38.0275 -0.0133244 38.2151 0.0873148C38.4137 0.193394 38.6721 0.332113 38.8353 0.416432C39.1508 0.582351 39.4582 0.789069 39.6567 1.10731C39.7438 1.23787 39.8716 1.49626 39.7873 1.66762C39.7002 1.8825 39.6567 2.22794 39.4418 2.31498C39.1835 2.44554 38.838 2.44554 38.5361 2.40202C38.3647 2.40202 38.1907 2.3585 38.0193 2.31498C38.6667 2.57337 39.2705 2.87529 39.7002 3.47913C39.7438 3.56617 39.9151 3.60969 40.0892 3.60969C40.1327 3.60969 40.1327 3.69673 40.1327 3.74025C40.0457 3.82728 39.9614 3.8708 40.0022 3.99864C40.0457 3.99864 40.0892 3.99864 40.1327 3.99864C40.3476 3.9116 40.3041 3.48185 40.606 3.60969C40.8209 3.74025 40.9079 4.03944 40.7774 4.25704C40.606 4.4284 40.4319 4.55896 40.2606 4.6868C40.217 4.77384 40.217 4.90168 40.2606 4.98872C40.3911 5.16007 40.4319 5.33415 40.4754 5.50551C40.606 5.80743 40.6468 6.15287 40.7774 6.45478C40.9487 7.10214 41.1228 7.74677 41.0793 8.39413C41.0793 8.73957 40.9079 9.04148 41.0358 9.3842C41.1228 9.72964 41.3377 9.98803 41.509 10.29C41.6804 10.5484 41.8545 10.7197 41.9823 10.9808C42.2407 11.4106 42.714 11.8431 42.4991 12.3599C42.3685 12.6618 41.8953 12.6183 41.5933 12.7896C41.335 13.0045 41.5498 13.3499 41.6804 13.5648C41.8953 13.9538 41.422 14.2122 41.1201 14.34C41.2071 14.4706 41.3785 14.427 41.422 14.5114C41.4655 14.7262 41.6804 14.8568 41.5526 15.0717C41.3812 15.3301 40.8617 15.4606 41.1228 15.8469C41.2942 16.1488 41.1826 16.4833 41.0793 16.7961C40.9487 17.1851 40.606 17.3565 40.3041 17.4435C40.0457 17.5305 39.7438 17.5305 39.4854 17.487C39.3983 17.4435 39.314 17.4 39.227 17.4C38.4953 17.3129 37.7609 17.0981 37.0292 17.0981C36.8143 17.1416 36.5995 17.1851 36.4254 17.2694C36.2296 17.4136 36.0582 17.5686 35.9032 17.7318C35.9004 17.7345 35.9004 17.7345 35.8977 17.7373C35.8651 17.7726 35.8352 17.8053 35.8025 17.8406C35.7835 17.8624 35.7644 17.8841 35.7481 17.9059C35.7345 17.9195 35.7236 17.9358 35.7128 17.9494C35.5876 18.1072 35.4734 18.2731 35.3728 18.4472C35.3673 18.458 35.3592 18.4689 35.3537 18.4798C35.3428 18.4988 35.332 18.5206 35.3211 18.5396C35.1796 18.8008 35.0736 19.07 34.9947 19.3312C34.7009 20.3185 34.8288 21.1644 35.0355 21.3711C35.0926 21.4283 36.458 21.8499 37.41 22.2742C37.8561 22.4727 38.1689 22.6251 38.4273 22.7883H62.5236V-0.0214844H62.5209Z" fill="#E1000F"/>
<path d="M39.4415 8.29876C39.6128 8.34228 39.8712 8.34228 39.8712 8.42932C39.7842 8.77475 39.2674 8.85907 39.009 9.20451H38.8784C38.7479 9.29155 38.7914 9.50643 38.6636 9.50643C38.533 9.46291 38.4052 9.50643 38.2746 9.54995C38.446 9.72131 38.6636 9.85187 38.922 9.80835C38.9655 9.80835 39.0525 9.89538 39.0525 9.9797C39.0525 9.9797 39.096 9.9797 39.1396 9.93618C39.1831 9.93618 39.2266 9.93618 39.2266 9.9797V10.1511C39.096 10.3224 38.8812 10.2381 38.7098 10.2816C39.0552 10.3687 39.4007 10.3687 39.6999 10.2816C39.9583 10.1946 39.6999 9.76483 39.8712 9.54995C39.7842 9.54995 39.8712 9.41939 39.7842 9.41939C39.8712 9.33235 39.9556 9.20451 40.0426 9.16099C40.1296 9.16099 40.2575 9.11747 40.301 9.03043C40.301 8.94339 40.1296 8.90259 40.1704 8.81555C40.4288 8.6442 40.6437 8.3858 40.5594 8.12468C40.5159 7.99412 40.1704 7.99412 39.9556 7.9098C39.7407 7.82276 39.4823 7.9098 39.2239 7.95332C39.009 7.95332 38.7914 8.08388 38.5765 8.12468C38.2746 8.21172 38.0162 8.38308 37.7578 8.55444C38.0597 8.42388 38.3616 8.38308 38.7071 8.29604C38.9655 8.29876 39.1858 8.2362 39.4415 8.29876Z" fill="#9D9D9C"/>
</svg>
