<svg width="200" height="93" viewBox="0 0 200 93" fill="none" xmlns="http://www.w3.org/2000/svg">
<g clip-path="url(#clip0)">
<path d="M57.1497 89.18H48.581V89.0299C49.1131 89.0299 49.4474 88.6683 49.4474 87.8701V79.2332C49.4474 78.4964 49.079 78.0734 48.465 78.0734V77.9234H52.7835V78.0734C52.4628 78.0734 51.9102 78.2099 51.9102 79.1991V87.57C51.9102 88.1703 52.265 88.3068 52.9813 88.3068H54.5027C56.0922 88.3068 57.3885 88.0816 57.9138 87.3721L58.098 87.4472L57.1497 89.18ZM67.0692 85.5438H60.629C60.629 87.3244 61.3863 88.6956 63.3579 88.6956C64.4913 88.6808 65.5851 88.2761 66.4552 87.5495H66.6735L66.3597 88.8457C65.2934 89.2158 64.1727 89.4049 63.0441 89.4051C59.8854 89.4051 58.2685 87.6245 58.2685 85.3118C58.2685 82.9991 59.9877 81.389 62.8599 81.389C65.732 81.389 67.0624 82.7944 67.0624 84.9775V85.5028L67.0692 85.5438ZM62.6961 82.0917C61.2908 82.0917 60.5881 83.3129 60.5881 84.7046H64.6814C64.7769 83.5721 64.2175 82.0917 62.703 82.0917H62.6961ZM63.2556 80.468H61.8911L63.1873 77.9165H65.425L63.2556 80.468ZM71.9402 92.9936C69.3478 92.9936 67.4239 91.8952 67.4239 90.64C67.4239 89.9577 68.1062 89.4256 68.7338 89.0299C68.536 88.9412 68.0516 88.6683 68.0516 88.2317C68.0516 87.3448 69.1431 86.4852 69.4569 86.2533C69.0135 86.0796 68.6286 85.7835 68.3472 85.3993C68.0657 85.0152 67.8993 84.559 67.8674 84.0838C67.8674 82.3373 69.6957 81.4027 71.6605 81.4027C72.2386 81.3822 72.8158 81.463 73.3661 81.6415H76.2655V82.3987H74.7169C74.9555 82.6229 75.1457 82.8934 75.276 83.1937C75.4062 83.4941 75.4736 83.8179 75.4741 84.1452C75.4741 85.728 73.6935 86.6967 71.6401 86.6967C71.1798 86.6989 70.7212 86.6416 70.2756 86.5262C70.0619 86.7032 69.9072 86.9412 69.8322 87.2084C69.8322 87.57 70.1255 87.6928 71.4217 87.6928H73.4684C75.7675 87.6928 76.5248 88.8525 76.5248 90.0123C76.5248 91.8338 74.7305 92.9663 71.9539 92.9663L71.9402 92.9936ZM73.4752 89.371H71.3058C70.7378 89.3788 70.17 89.3446 69.607 89.2687C69.4308 89.4213 69.2909 89.6114 69.1976 89.825C69.1043 90.0387 69.0601 90.2705 69.0681 90.5035C69.0681 91.1857 69.955 92.25 71.9198 92.25C73.4752 92.25 75.0853 91.5678 75.0853 90.4285C75.0853 89.7463 74.328 89.371 73.4752 89.371V89.371ZM71.7015 82.0576C70.3848 82.0576 70.0505 83.1901 70.0505 83.961C70.0505 85.5096 70.9033 85.9531 71.6401 85.9531C72.7384 85.9531 73.2706 85.1822 73.2706 84.0974C73.2706 82.8285 72.7384 82.0508 71.7015 82.0508V82.0576ZM83.7358 89.18L83.5858 88.184C83.2337 88.6002 82.7898 88.9291 82.289 89.1446C81.7883 89.36 81.2443 89.4562 80.7 89.4256C78.435 89.4256 77.473 88.2931 77.473 86.3488V83.0468C77.473 82.426 77.3844 81.9757 76.5452 82.0508V81.9007L79.6766 81.389V86.5876C79.6766 87.5495 80.0314 88.4091 81.4572 88.4091C81.7212 88.4204 81.9845 88.3737 82.2285 88.2723C82.4726 88.1709 82.6914 88.0172 82.8696 87.8221C83.0478 87.627 83.1811 87.3951 83.26 87.143C83.339 86.8908 83.3617 86.6243 83.3265 86.3624V82.9513C83.3265 82.1258 83.0468 81.9757 82.4192 82.003V81.8529L85.5847 81.3549V87.4472C85.5847 88.1294 85.4755 88.9822 86.4579 88.9822V89.1322L83.7358 89.18ZM98.8607 89.18V89.0299C99.3792 89.0299 99.8021 88.8184 99.8021 87.7951V84.2339C99.8021 83.3811 99.618 82.5215 98.2126 82.5215C96.4729 82.5215 96.2682 83.9337 96.2682 84.6296V87.7951C96.2682 88.4773 96.3774 88.9685 97.1756 89.0299V89.18H93.2119V89.0299C93.8054 88.9071 94.0647 88.6547 94.0647 87.7951V84.3294C94.0647 83.4698 93.8805 82.5215 92.4751 82.5215C92.2185 82.5133 91.9628 82.5566 91.7232 82.6487C91.4835 82.7409 91.2647 82.8801 91.0797 83.0581C90.8947 83.2361 90.7472 83.4494 90.6459 83.6853C90.5446 83.9212 90.4915 84.175 90.4898 84.4317V87.8428C90.4898 88.5251 90.5649 88.9139 91.3835 89.0504V89.2005H87.3653V89.0504C87.9724 88.9617 88.2863 88.7911 88.2863 87.8019V83.3538C88.2863 82.3851 88.1225 82.1327 87.3653 82.1327L87.3243 81.9689L90.3261 81.4982V82.658C90.6611 82.2669 91.0812 81.9578 91.5543 81.7544C92.0273 81.551 92.5407 81.4587 93.055 81.4846C94.665 81.4846 95.4837 82.119 95.9067 82.849C96.6503 81.7438 97.9056 81.4846 99.1813 81.4846C101.017 81.4846 101.999 82.4055 101.999 84.0429V87.8019C101.999 88.4841 102.163 88.989 102.92 89.0504V89.2005L98.8607 89.18ZM112.423 85.5506H105.983C106.024 87.3244 106.747 88.6956 108.712 88.6956C109.842 88.6779 110.932 88.2761 111.802 87.5563H112.028L111.707 88.8525C110.643 89.2222 109.525 89.4112 108.398 89.412C105.233 89.412 103.623 87.6314 103.623 85.3186C103.623 83.0059 105.342 81.3959 108.207 81.3959C111.072 81.3959 112.41 82.8012 112.41 84.9843V85.5165L112.423 85.5506ZM108.043 82.1054C106.638 82.1054 105.935 83.3265 105.935 84.7183H110.029C110.117 83.5858 109.565 82.1054 108.043 82.1054ZM116.776 89.4051C115.845 89.338 114.918 89.2218 113.999 89.0572C113.933 89.0523 113.866 89.0607 113.803 89.0818C113.739 89.1028 113.681 89.1362 113.631 89.18H113.337V87.0378H113.631C113.925 87.5737 114.367 88.0139 114.904 88.3065C115.441 88.5991 116.05 88.7318 116.66 88.6888C117.861 88.6888 118.843 88.3068 118.843 87.4676C118.843 86.4716 117.049 86.3488 115.971 86.0213C114.736 85.6393 113.365 85.2777 113.365 83.6813C113.365 82.3987 114.62 81.4027 116.639 81.4027C117.522 81.4414 118.4 81.5486 119.266 81.7233C119.365 81.7192 119.462 81.6886 119.546 81.6346H119.825L120.044 83.6404H119.771C119.566 83.0195 118.495 82.0849 116.878 82.0849C115.732 82.0849 115.05 82.5966 115.05 83.1287C115.05 83.6608 115.602 84.0292 116.994 84.3772C118.386 84.7251 120.562 85.0594 120.562 87.0037C120.562 88.3682 119.123 89.3506 116.769 89.3506L116.776 89.4051ZM138.75 79.3355L133.47 89.6644L128.258 79.5334C127.739 78.551 127.309 78.1144 126.777 78.0734V77.9234H131.232V78.0734C130.645 78.1485 130.55 78.6124 130.775 79.0217L134.186 86.0623L137.549 79.24C137.829 78.667 137.7 78.0939 137.092 78.053V77.9029H140.292V78.053C139.61 78.053 139.2 78.4759 138.777 79.3151L138.75 79.3355ZM144.283 89.18C144.239 88.9039 144.17 88.6322 144.078 88.3682C143.728 88.7182 143.309 88.9912 142.847 89.1698C142.386 89.3484 141.892 89.4285 141.397 89.4051C139.542 89.4051 138.211 88.6069 138.211 87.222C138.211 85.1754 141.302 84.7933 143.84 84.7933V83.6063C143.84 82.924 143.157 82.2418 142.025 82.2418C141.49 82.2497 140.963 82.3761 140.483 82.6121C140.003 82.848 139.581 83.1876 139.248 83.6063H139.009L139.153 82.1599C140.114 81.7045 141.166 81.4714 142.229 81.4777C145.927 81.4777 146.057 83.0468 146.057 84.4045V86.9969C146.057 88.3613 146.261 89.0436 147.148 89.0436V89.1937L144.283 89.18ZM143.84 85.5779C142.707 85.5779 140.428 85.4892 140.428 87.0719C140.405 87.2767 140.429 87.4841 140.497 87.6786C140.566 87.873 140.677 88.0493 140.824 88.1944C140.97 88.3395 141.148 88.4496 141.343 88.5163C141.538 88.583 141.745 88.6047 141.95 88.5796C142.196 88.5833 142.441 88.5375 142.669 88.4449C142.898 88.3522 143.105 88.2147 143.28 88.0403C143.454 87.866 143.592 87.6585 143.684 87.43C143.777 87.2016 143.823 86.9569 143.819 86.7104L143.84 85.5779ZM153.5 89.4529C152.961 89.4965 152.42 89.4172 151.916 89.221C151.413 89.0249 150.961 88.7169 150.594 88.3204V91.2471C150.594 92.4069 150.853 92.5706 151.576 92.6116V92.7821H147.544V92.632C148.301 92.557 148.485 92.2568 148.485 91.3631V82.7467C148.485 81.928 147.803 82.0644 147.558 82.1395L147.503 81.9758L150.464 81.4641V82.6375C150.848 82.2074 151.328 81.873 151.865 81.6609C152.401 81.4489 152.98 81.3652 153.554 81.4163C156.283 81.4163 157.777 83.0878 157.777 85.4551C157.777 87.8224 156.263 89.4529 153.5 89.4529V89.4529ZM153.056 82.2009C151.167 82.2009 150.464 83.845 150.464 85.4141C150.464 87.4608 151.501 88.6683 153.056 88.6683C154.612 88.6683 155.444 87.5222 155.444 85.38C155.444 83.8723 154.892 82.2009 153.056 82.2009ZM167.417 85.5506H161.004C161.045 87.3244 161.768 88.6956 163.733 88.6956C164.863 88.6779 165.953 88.2761 166.824 87.5563H167.042L166.728 88.8525C165.664 89.2222 164.546 89.4112 163.419 89.412C160.254 89.412 158.644 87.6314 158.644 85.3186C158.644 83.0059 160.363 81.3959 163.228 81.3959C166.094 81.3959 167.431 82.8012 167.431 84.9843V85.5165L167.417 85.5506ZM163.065 82.1054C161.659 82.1054 160.956 83.3265 160.956 84.7183H165.05C165.145 83.5858 164.593 82.1054 163.071 82.1054H163.065ZM175.16 89.18L175.01 88.184C174.658 88.5994 174.214 88.9277 173.713 89.1431C173.212 89.3585 172.669 89.4552 172.124 89.4256C169.866 89.4256 168.904 88.2931 168.904 86.3488V83.0468C168.904 82.426 168.809 81.9757 167.977 82.0508V81.9007L171.101 81.389V86.5876C171.101 87.5495 171.456 88.4091 172.882 88.4091C173.146 88.4204 173.409 88.3737 173.653 88.2723C173.897 88.1709 174.116 88.0172 174.294 87.8221C174.472 87.627 174.606 87.3951 174.684 87.143C174.763 86.8908 174.786 86.6243 174.751 86.3624V82.9513C174.751 82.1258 174.471 81.9757 173.844 82.003V81.8529L177.009 81.3549V87.4472C177.009 88.1294 176.9 88.9822 177.876 88.9822V89.1322L175.16 89.18ZM184.984 83.1355C184.88 82.9272 184.714 82.7563 184.509 82.6463C184.304 82.5363 184.069 82.4927 183.838 82.5215C183.561 82.5299 183.288 82.5945 183.037 82.7116C182.785 82.8286 182.56 82.9955 182.375 83.2023C182.19 83.409 182.049 83.6512 181.96 83.9142C181.872 84.1771 181.837 84.4554 181.86 84.7319V87.8224C181.84 87.9628 181.848 88.1059 181.884 88.2431C181.92 88.3804 181.983 88.509 182.069 88.6215C182.156 88.734 182.264 88.8281 182.387 88.8983C182.511 88.9684 182.647 89.0132 182.788 89.0299V89.18H178.79V89.0299C179.342 88.9071 179.656 88.757 179.656 87.7815V83.3334C179.656 82.2145 179.342 82.0235 178.79 82.0781L178.749 81.9143L181.655 81.43V82.7467C181.885 82.3198 182.227 81.9635 182.644 81.716C183.061 81.4684 183.537 81.3389 184.022 81.3413C184.446 81.3312 184.865 81.4249 185.244 81.6142V83.1355H184.984ZM39.0231 89.105H0.498022V88.3409C2.91308 88.184 4.40715 86.5057 4.40715 82.4465V32.6443C4.40715 28.8921 2.72889 26.7499 0 26.7499V25.9858H19.3887V26.7499C17.9697 26.7499 15.4796 27.4321 15.4796 32.4874V80.9251C15.4796 83.9815 17.0555 84.6705 20.3029 84.6705H27.1251C34.2816 84.6705 40.0873 83.5244 42.3523 79.9291L43.1846 80.3111L39.0231 89.105Z" fill="#004226"/>
<path d="M61.3248 72.5611L60.6971 67.7855C58.3571 70.5895 55.3076 73.6799 48.5195 73.6799C38.9684 73.6799 34.9365 68.2904 34.9365 59.0326V43.3415C34.9365 40.3943 34.5408 38.2453 31.0273 38.566V37.8838L44.2283 35.4755V60.2129C44.2283 64.811 45.7087 68.9044 51.7191 68.9044C56.5629 68.9044 59.6056 65.2477 59.6056 59.2851V43.1232C59.6056 39.18 58.4322 38.4568 55.7783 38.6001V37.9179L69.1294 35.5506V64.5245C69.1294 67.8196 68.6655 71.8447 72.7997 71.8447V72.527L61.3248 72.5611ZM104.196 72.5611V71.8789C106.699 71.3058 107.866 70.0846 107.866 65.9913V49.0108C107.866 44.9175 106.931 40.3943 100.996 40.3943C94.856 40.3943 91.7041 44.8492 91.7041 49.9454V66.1004C91.7041 69.1909 92.3317 71.1966 95.5314 71.8447V72.527H78.5782V71.8447C80.925 71.3399 82.4123 70.262 82.4123 65.8821V44.7333C82.4123 42.4342 82.6442 38.989 78.5782 38.989L78.4554 38.2044L90.9537 35.9053V41.4381C93.2186 38.6342 96.582 35.8371 103.37 35.8371C114.149 35.8371 117.192 41.8679 117.192 50.1979V65.889C117.192 68.8362 117.11 71.49 121.094 71.8516V72.5338L104.196 72.5611ZM146.677 73.5639C130.986 73.5639 126.211 63.0168 126.211 54.5436C126.211 39.9645 137.126 35.4414 146.746 35.4414C160.254 35.4414 167.042 43.7031 167.042 54.182C167.042 67.4649 157.491 73.5639 146.664 73.5639H146.677ZM146.746 38.6001C139.719 38.6001 136.048 43.7713 136.048 53.9637C136.048 67.7514 142.141 70.262 147.06 70.262C150.334 70.262 157.211 68.5428 157.211 54.9734C157.211 42.6934 152.599 38.6001 146.746 38.6001ZM198.908 43.7713C198.226 41.9021 196.562 40.831 194.071 40.831C188.525 40.831 185.714 46.2137 185.714 51.3849V66.1004C185.714 68.6178 186.396 71.2717 189.616 71.8447V72.5679H172.752V71.8447C175.092 71.2717 176.422 70.5553 176.422 65.8821V44.7333C176.422 39.4188 175.058 38.4841 172.752 38.7707L172.602 37.9588L184.882 35.6597V41.902C185.898 39.7531 189.016 35.2299 194.876 35.2299C196.678 35.1928 198.456 35.638 200.027 36.5193V43.7713H198.908Z" fill="#004226"/>
<path d="M154.298 24.2871C156.229 13.7195 156.911 4.39356 145.853 2.33325C144.031 11.9389 144.966 19.6276 154.298 24.2871Z" fill="#7CC625"/>
<path d="M187.61 3.68402C174.839 -5.86708 158.657 4.25026 157.367 21.2376C164.558 15.6911 182.323 18.6588 187.61 3.68402Z" fill="#E23921"/>
<path d="M36.0156 28.3258C36.0156 28.3258 92.5718 -6.86998 147.361 26.6066C147.361 26.6066 91.0777 11.9934 36.0156 28.3531" fill="#F6D218"/>
</g>
<defs>
<clipPath id="clip0">
<rect width="200" height="92.9936" fill="white"/>
</clipPath>
</defs>
</svg>
